/* XPM */
static char *four_xpm[] = {
"12 12 2 1",
". c #160041",
"# c #ffffff",
"............",
"......##....",
".....###....",
"....#.#.....",
"...#..#.....",
"..#...#.....",
".#....#.....",
"##########..",
"......#.....",
"......#.....",
"......#.....",
"............"
};
