/* XPM */
static char *result[] = {
/* columns rows colors chars-per-pixel */
"64 64 8 1 ",
"  c black",
". c #372E2E",
"X c #3C3A3A",
"o c #676363",
"O c #F73333",
"+ c #F86666",
"@ c #ED9393",
"# c #F5C8C8",
/* pixels */
"XXXXXXXXXXXXXXXXXXXXXXXXXXXXXXXXXXXXXXXXXXXXXXXXXXXXXXXXXXXXXXXX",
"XooooooooooooooXoooooooooooooooooooooooooooooooooooooooooooooooX",
"XooooooooooooooXoooooooooooooooooooooooooooooooooooooooooooooooX",
"XooooooooooooooXoooooooooooooooooooooooooooooooooooooooooooooooX",
"XooooooooooooooXoooooooooooooooooooooooooooooooooooooooooooooooX",
"XooooooooooooooXoooooooooooooooooooooooooooooooooooooooooooooooX",
"XooooooooooooooXoooooooooooooooooooooooooooooooooooooooooooooooX",
"XooooooooooooooXoooooooooooooooooooooooooooooooooooooooooooooooX",
"XooooooooooooooXoooooooooooooooooooooooooooooooooooooooooooooooX",
"XooooooooooooooXoooooooooooooooooooooooooooooooooooooooooooooooX",
"XooooooooooooooXoooooooooooooooooooooooooooooooooooooooooooooooX",
"XooooooooooooooXoooooooooooooooooooooooooooooooooooooooooooooooX",
"XooooooooooooooXoooooooooooooooooooooooooooooooooooooooooooooooX",
"XooooooooooooooXoooooooooooooooooooooooooooooooooooooooooooooooX",
"XooooooooooooooXoooooooooo          oooooooooooooooooooooooooooX",
"XooooooooooooooXoooooooooo          oooooooooooooooooooooooooooX",
"XooooooooooooooXoooooo    ##########    oooooooooooooooooooooooX",
"XooooooooooooooXoooooo    ##########    oooooooooooooooooooooooX",
"XooooooooooooooXoooo  ######@@@@@@######  oooooooooooooooooooooX",
"XooooooooooooooXoooo  ######@@@@@@######  oooooooooooooooooooooX",
"XooooooooooooooXoooo  ##@@@@@@OO@@@@@@##  oooooooooooooooooooooX",
"XooooooooooooooXoooo  ##@@@@@@OO@@@@@@##  oooooooooooooooooooooX",
"XooooooooooooooXoo  ####@@++++OO++++@@####  oooooooooooooooooooX",
"XooooooooooooooXoo  ####@@++++OO++++@@####  oooooooooooooooooooX",
"XooooooooooooooXoo  ##@@@@++++++++++@@@@##  oooooooooooooooooooX",
"XooooooooooooooXoo  ##@@@@++++++++++@@@@##  oooooooooooooooooooX",
"XooooooooooooooXoo  ##@@OOOO++++++OOOO@@##  oooooooooooooooooooX",
"XooooooooooooooXoo  ##@@OOOO++++++OOOO@@##  oooooooooooooooooooX",
"XooooooooooooooXoo  ##@@@@++++++++++@@@@##  oooooooooooooooooooX",
"XooooooooooooooXoo  ##@@@@++++++++++@@@@##  oooooooooooooooooooX",
"XooooooooooooooXoo  ####@@++++OO++++@@####  oooooooooooooooooooX",
"XXXXXXXXXXXXXXXXXX  ####@@++++OO++++@@####  XXXXXXXXXXXXXXXXXXXX",
"Xooooooooooooooooooo  ##@@@@@@OO@@@@@@##  oooooXoooooooooooooooX",
"Xooooooooooooooooooo  ##@@@@@@OO@@@@@@##  oooooXoooooooooooooooX",
"Xooooooooooooooooooo  ######@@@@@@######  oooooXoooooooooooooooX",
"Xooooooooooooooooooo  ######@@@@@@######  oooooXoooooooooooooooX",
"Xooooooooooooooooooooo    ##########    oooooooXoooooooooooooooX",
"Xooooooooooooooooooooo    ##########    oooooooXoooooooooooooooX",
"Xooooooooooooooooooooooooo          oooooooooooXoooooooooooooooX",
"Xooooooooooooooooooooooooo          oooooooooooXoooooooooooooooX",
"XooooooooooooooooooooooooooooooooooooooooooooooXoooooooooooooooX",
"XooooooooooooooooooooooooooooooooooooooooooooooXoooooooooooooooX",
"XooooooooooooooooooooooooooooooooooooooooooooooXoooooooooooooooX",
"XooooooooooooooooooooooooooooooooooooooooooooooXoooooooooooooooX",
"XooooooooooooooooooooooooooooooooooooooooooooooXoooooooooooooooX",
"Xooooooooooooooooooooooooo..........oooooooooooXoooooooooooooooX",
"Xooooooooooooooooooooooooo..........oooooooooooXoooooooooooooooX",
"Xooooooooooooooooooooooooo..........oooooooooooXoooooooooooooooX",
"Xooooooooooooooooooooooooo..........oooooooooooXoooooooooooooooX",
"Xooooooooooooooooooooooooo..........oooooooooooXoooooooooooooooX",
"Xooooooooooooooooooooooooo..........oooooooooooXoooooooooooooooX",
"Xooooooooooooooooooooooooo..........oooooooooooXoooooooooooooooX",
"XooooooooooooooooooooooooooooooooooooooooooooooXoooooooooooooooX",
"XooooooooooooooooooooooooooooooooooooooooooooooXoooooooooooooooX",
"XooooooooooooooooooooooooooooooooooooooooooooooXoooooooooooooooX",
"XooooooooooooooooooooooooooooooooooooooooooooooXoooooooooooooooX",
"XooooooooooooooooooooooooooooooooooooooooooooooXoooooooooooooooX",
"XooooooooooooooooooooooooooooooooooooooooooooooXoooooooooooooooX",
"XooooooooooooooooooooooooooooooooooooooooooooooXoooooooooooooooX",
"XooooooooooooooooooooooooooooooooooooooooooooooXoooooooooooooooX",
"XooooooooooooooooooooooooooooooooooooooooooooooXoooooooooooooooX",
"XooooooooooooooooooooooooooooooooooooooooooooooXoooooooooooooooX",
"XooooooooooooooooooooooooooooooooooooooooooooooXoooooooooooooooX",
"XXXXXXXXXXXXXXXXXXXXXXXXXXXXXXXXXXXXXXXXXXXXXXXXXXXXXXXXXXXXXXXX"
};
