/* XPM */
static char *_fb2f3c8133347c8bd1417c92160d34529tKtke0yz27hWPd[] = {
/* columns rows colors chars-per-pixel */
"64 64 10 1 ",
"  c black",
". c #0E0E0E",
"X c #3C3A3A",
"o c #676363",
"O c #756F6F",
"+ c #EDB112",
"@ c #E8EC23",
"# c #848282",
"$ c #D9CCCC",
"% c white",
/* pixels */
"XXXXXXXXXXXXXXXXXXXXXXXXXXXXXXXXXXXXXXXXXXXXXXXXXXXXXXXXXXXXXXXX",
"XoooooooooooooooXooooooooooooooooooooooooooooooooooooooooooooooX",
"XoooooooooooooooXooooooooooooooooooooooooooooooooooooooooooooooX",
"XoooooooooooooooXooooooooooooooooooooooooooooooooooooooooooooooX",
"XoooooooooooooooXooooooooooooooooooooooooooooooooooooooooooooooX",
"XoooooooooooooooXooooooooooooooooooooooooooooooooooooooooooooooX",
"XoooooooooooooooXoooooooooooooooooooooooooooo  ooooooooooooooooX",
"XoooooooooooooooXooooooooooooooooooooooooo   @@ oooooooooooooooX",
"XoooooooooooooooXoooooooooooooooooooooooo @@@@@@ ooooooooooooooX",
"XoooooooooooooooXoooooooooooooooooooooo  @@@@@@@ ooooooooooooooX",
"XoooooooooooooooXooooooooooooooooooooo @@@@@@@@@ ooooooooooooooX",
"XoooooooooooooooXooooooooooooo ooooooo +++++++++ ooooooooooooooX",
"XoooooooooooooooXoooooooooooo X oooooo +++++++++ ooooooooooooooX",
"XoooooooooooooooXooooooooooo XXX ooooo +++++++++ ooooooooooooooX",
"XoooooooooooooooXoooooooooo XXXXX ooooo         oooooooooooooooX",
"XoooooooooooooooXooooooooo XXXXXXX ooooooooooooooooooooooooooooX",
"XoooooooooooooooXoooooooo XXXXXXXXX oooooooooooooooooooooooooooX",
"XoooooooooooooooXoooooooo X%%XXX%%X oooooo   ooooooooooooooooooX",
"XoooooooooooooooXoooooooo XOOXXXOOX ooooo  X ooooooooooooooooooX",
"Xooooooooooooo...oooooooo XXXXXXXXX oooo  XX ooooooooooooooooooX",
"Xooooooooooooo.$..ooooooo XXXOOOXXX ooo  XXX ooooooooooooooooooX",
"Xooooooooooooo..$..oooooo XXOOOOOXX ooo XXXX ooooooooooooooooooX",
"Xoooooooooooooo..$..oooo XXXXOOOXXXX o XXXXX ooooooooooooooooooX",
"Xooooooooooooooo..$..ooo OXXXXOXXXXO o XXXXX ooooooooooooooooooX",
"XoooooooooooooooX..$..o OOOXXXXXXXOOO XXXXXX ooooooooooooooooooX",
"XoooooooooooooooXo..$.. OOOXXXXXXXOOOOXXXXXX ooooooooooooooooooX",
"XoooooooooooooooXoo... OOOXXXXXXXXXOOOXXXXXX ooooooooooooooooooX",
"XoooooooooooooooXooo. OOXXXXXXXXXXXXOOOXXXXX ooooooooooooooooooX",
"XoooooooooooooooXooo XXXXXXXXXXXXXXXXXXXXXXX ooooooooooooooooooX",
"XoooooooooooooooXo  XXXXXXXXXXXXXXXXXXXXXXX oooooooooooooooooooX",
"XoooooooooooooooX XXXXXXXXXXXXXXXXXXXXXXXXX oooooooooooooooooooX",
"XoooooooooooooooX XXXXXXXX XXXXXXXXXXXXXXX  oooooooooooooooooooX",
"XXXXXXXXXXXXXXXXX XXXXXXX XXXXXXXXXXXXX    XXXXXXXXXXXXXXXXXXXXX",
"Xoooooooooooooooo XXXXXXX XXXXXXXXXXXX oooooooooXooooooooooooooX",
"Xoooooooooooooooo XXXXXXX XXXXXXXXXXXX oooooooooXooooooooooooooX",
"Xoooooooooooooooo XXXXXXX XXXXXXXXXXXX oooooooooXooooooooooooooX",
"Xoooooooooooooooo XXXXXXX XXXXXXXXXXXX oooooooooXooooooooooooooX",
"Xoooooooooooooooo XXXXXXX ###XXXXX#### oooooooooXooooooooooooooX",
"Xoooooooooooooooo XXXXXXX ########### ooooooooooXooooooooooooooX",
"Xoooooooooooooooo XXXXXX ############ ooooooooooXooooooooooooooX",
"Xoooooooooooooooo XXXXXX ############ ooooooooooXooooooooooooooX",
"Xoooooooooooooooo XXXXXX ############ ooooooooooXooooooooooooooX",
"Xooooooooooooooooo XXXXX ##O#O#O#O#O# ooooooooooXooooooooooooooX",
"Xooooooooooooooooo XXXXXX OOOOOOOOOO oooooooooooXooooooooooooooX",
"Xooooooooooooooooo XXXXXX OOOOOOOOOO oooooooooooXooooooooooooooX",
"Xooooooooooooooooo XXXXXX  OOOOOOOO  oooooooooooXooooooooooooooX",
"Xooooooooooooooooo XXXXXX o O    O  ooooooooooooXooooooooooooooX",
"Xoooooooooooooooooo XXXX ooo oooo ooooooooooooooXooooooooooooooX",
"Xooooooooooooooooooo XX oooo oooo ooooooooooooooXooooooooooooooX",
"Xoooooooooooooooooooo X oooo oooo ooooooooooooooXooooooooooooooX",
"Xooooooooooooooooooooo ooooo.oooo.ooooooooooooooXooooooooooooooX",
"Xooooooooooooooooooooooooooo.oooo.ooooooooooooooXooooooooooooooX",
"Xooooooooooooooooooooooooooo.oooo.ooooooooooooooXooooooooooooooX",
"Xoooooooooooooooooooooooooo...oo...oooooooooooooXooooooooooooooX",
"XoooooooooooooooooooooooooooooooooooooooooooooooXooooooooooooooX",
"XoooooooooooooooooooooooooooooooooooooooooooooooXooooooooooooooX",
"XoooooooooooooooooooooooooooooooooooooooooooooooXooooooooooooooX",
"XoooooooooooooooooooooooooooooooooooooooooooooooXooooooooooooooX",
"XoooooooooooooooooooooooooooooooooooooooooooooooXooooooooooooooX",
"XoooooooooooooooooooooooooooooooooooooooooooooooXooooooooooooooX",
"XoooooooooooooooooooooooooooooooooooooooooooooooXooooooooooooooX",
"XoooooooooooooooooooooooooooooooooooooooooooooooXooooooooooooooX",
"XoooooooooooooooooooooooooooooooooooooooooooooooXooooooooooooooX",
"XXXXXXXXXXXXXXXXXXXXXXXXXXXXXXXXXXXXXXXXXXXXXXXXXXXXXXXXXXXXXXXX"
};
