/* XPM */
static char *result[] = {
/* columns rows colors chars-per-pixel */
"64 64 13 1 ",
"  c black",
". c #0E0E0E",
"X c #3D3939",
"o c #3C3A3A",
"O c #676363",
"+ c #756F6F",
"@ c #F73333",
"# c #F86666",
"$ c #848282",
"% c #ED9393",
"& c #D9CCCC",
"* c #F5C8C8",
"= c white",
/* pixels */
"oooooooooooooooooooooooooooooooooooooooooooooooooooooooooooooooo",
"oOOOOOOOOOOOOOOOoOOOOOOOOOOOOOOOOOOOOOOOOOOOOOOOOOOOOOOOOOOOOOOo",
"oOOOOOOOOOOOOOOOoOOOOOOOOOOOOOOOOOOOOOOOO     OOOOOOOOOOOOOOOOOo",
"oOOOOOOOOOOOOOOOoOOOOOOOOOOOOOOOOOOOOOO  *****  OOOOOOOOOOOOOOOo",
"oOOOOOOOOOOOOOOOoOOOOOOOOOOOOOOOOOOOOO ***%%%*** OOOOOOOOOOOOOOo",
"oOOOOOOOOOOOOOOOoOOOOOOOOOOOOOOOOOOOOO *%%%@%%%* OOOOOOOOOOOOOOo",
"oOOOOOOOOOOOOOOOoOOOOOOOOOOOOOOOOOOOO **%##@##%** OOOOOOOOOOOOOo",
"oOOOOOOOOOOOOOOOoOOOOOOOOOOOOOOOOOOOO *%%#####%%* OOOOOOOOOOOOOo",
"oOOOOOOOOOOOOOOOoOOOOOOOOOOOOOOOOOOOO *%@@###@@%* OOOOOOOOOOOOOo",
"oOOOOOOOOOOOOOOOoOOOOOOOOOOOOOOOOOOOO *%%#####%%* OOOOOOOOOOOOOo",
"oOOOOOOOOOOOOOOOoOOOOOOOOOOOOOOOOOOOO **%##@##%** OOOOOOOOOOOOOo",
"oOOOOOOOOOOOOOOOoOOOOOOOOOOOOO OOOOOOO *%%%@%%%* OOOOOOOOOOOOOOo",
"oOOOOOOOOOOOOOOOoOOOOOOOOOOOO X OOOOOO ***%%%*** OOOOOOOOOOOOOOo",
"oOOOOOOOOOOOOOOOoOOOOOOOOOOO XXX OOOOOO  *****  OOOOOOOOOOOOOOOo",
"oOOOOOOOOOOOOOOOoOOOOOOOOOO XXXXX OOOOOOO     OOOOOOOOOOOOOOOOOo",
"oOOOOOOOOOOOOOOOoOOOOOOOOO XXXXXXX OOOOOOOOOOOOOOOOOOOOOOOOOOOOo",
"oOOOOOOOOOOOOOOOoOOOOOOOO XXXXXXXXX OOOOOOOOOOOOOOOOOOOOOOOOOOOo",
"oOOOOOOOOOOOOOOOoOOOOOOOO X==XXX==X OOOOOO   OOOOOOOOOOOOOOOOOOo",
"oOOOOOOOOOOOOOOOoOOOOOOOO X++XXX++X OOOOO  X OOOOOOOOOOOOOOOOOOo",
"oOOOOOOOOOOOOO...OOOOOOOO XXXXXXXXX OOOO  XX OOOOOOOOOOOOOOOOOOo",
"oOOOOOOOOOOOOO.&..OOOOOOO XXX+++XXX OOO  XXX OOOOOOOOOOOOOOOOOOo",
"oOOOOOOOOOOOOO..&..OOOOOO XX+++++XX OOO XXXX OOOOOOOOOOOOOOOOOOo",
"oOOOOOOOOOOOOOO..&..OOOO XXXX+++XXXX O XXXXX OOOOOOOOOOOOOOOOOOo",
"oOOOOOOOOOOOOOOO..&..OOO +XXXX+XXXX+ O XXXXX OOOOOOOOOOOOOOOOOOo",
"oOOOOOOOOOOOOOOOo..&..O +++XXXXXXX+++ XXXXXX OOOOOOOOOOOOOOOOOOo",
"oOOOOOOOOOOOOOOOoO..&.. +++XXXXXXX++++XXXXXX OOOOOOOOOOOOOOOOOOo",
"oOOOOOOOOOOOOOOOoOO... +++XXXXXXXXX+++XXXXXX OOOOOOOOOOOOOOOOOOo",
"oOOOOOOOOOOOOOOOoOOO. ++XXXXXXXXXXXX+++XXXXX OOOOOOOOOOOOOOOOOOo",
"oOOOOOOOOOOOOOOOoOOO XXXXXXXXXXXXXXXXXXXXXXX OOOOOOOOOOOOOOOOOOo",
"oOOOOOOOOOOOOOOOoO  XXXXXXXXXXXXXXXXXXXXXXX OOOOOOOOOOOOOOOOOOOo",
"oOOOOOOOOOOOOOOOo oXXXXXXXXXXXXXXXXXXXXXXXX OOOOOOOOOOOOOOOOOOOo",
"oOOOOOOOOOOOOOOOo oXXXXXXX XXXXXXXXXXXXXXX  OOOOOOOOOOOOOOOOOOOo",
"ooooooooooooooooo oXXXXXX XXXXXXXXXXXXX    ooooooooooooooooooooo",
"oOOOOOOOOOOOOOOOO oXXXXXX XXXXXXXXXXXX OOOOOOOOOoOOOOOOOOOOOOOOo",
"oOOOOOOOOOOOOOOOO oXXXXXX XXXXXXXXXXXX OOOOOOOOOoOOOOOOOOOOOOOOo",
"oOOOOOOOOOOOOOOOO oXXXXXX XXXXXXXXXXXX OOOOOOOOOoOOOOOOOOOOOOOOo",
"oOOOOOOOOOOOOOOOO XXXXXXX XXXXXXXXXXXX OOOOOOOOOoOOOOOOOOOOOOOOo",
"oOOOOOOOOOOOOOOOO XXXXXXX $$$XXXXX$$$$ OOOOOOOOOoOOOOOOOOOOOOOOo",
"oOOOOOOOOOOOOOOOO XXXXXXX $$$$$$$$$$$ OOOOOOOOOOoOOOOOOOOOOOOOOo",
"oOOOOOOOOOOOOOOOO XXXXXX $$$$$$$$$$$$ OOOOOOOOOOoOOOOOOOOOOOOOOo",
"oOOOOOOOOOOOOOOOO XXXXXX $$$$$$$$$$$$ OOOOOOOOOOoOOOOOOOOOOOOOOo",
"oOOOOOOOOOOOOOOOO XXXXXX $$$$$$$$$$$$ OOOOOOOOOOoOOOOOOOOOOOOOOo",
"oOOOOOOOOOOOOOOOOO XXXXX $$+$+$+$+$+$ OOOOOOOOOOoOOOOOOOOOOOOOOo",
"oOOOOOOOOOOOOOOOOO XXXXXX ++++++++++ OOOOOOOOOOOoOOOOOOOOOOOOOOo",
"oOOOOOOOOOOOOOOOOO XXXXXX ++++++++++ OOOOOOOOOOOoOOOOOOOOOOOOOOo",
"oOOOOOOOOOOOOOOOOO XXXXXX  ++++++++  OOOOOOOOOOOoOOOOOOOOOOOOOOo",
"oOOOOOOOOOOOOOOOOO XXXXXX O +    +  OOOOOOOOOOOOoOOOOOOOOOOOOOOo",
"oOOOOOOOOOOOOOOOOOO XXXX OOO OOOO OOOOOOOOOOOOOOoOOOOOOOOOOOOOOo",
"oOOOOOOOOOOOOOOOOOOO XX OOOO OOOO OOOOOOOOOOOOOOoOOOOOOOOOOOOOOo",
"oOOOOOOOOOOOOOOOOOOOO X OOOO OOOO OOOOOOOOOOOOOOoOOOOOOOOOOOOOOo",
"oOOOOOOOOOOOOOOOOOOOOO OOOOO.OOOO.OOOOOOOOOOOOOOoOOOOOOOOOOOOOOo",
"oOOOOOOOOOOOOOOOOOOOOOOOOOOO.OOOO.OOOOOOOOOOOOOOoOOOOOOOOOOOOOOo",
"oOOOOOOOOOOOOOOOOOOOOOOOOOOO.OOOO.OOOOOOOOOOOOOOoOOOOOOOOOOOOOOo",
"oOOOOOOOOOOOOOOOOOOOOOOOOOO...OO...OOOOOOOOOOOOOoOOOOOOOOOOOOOOo",
"oOOOOOOOOOOOOOOOOOOOOOOOOOOOOOOOOOOOOOOOOOOOOOOOoOOOOOOOOOOOOOOo",
"oOOOOOOOOOOOOOOOOOOOOOOOOOOOOOOOOOOOOOOOOOOOOOOOoOOOOOOOOOOOOOOo",
"oOOOOOOOOOOOOOOOOOOOOOOOOOOOOOOOOOOOOOOOOOOOOOOOoOOOOOOOOOOOOOOo",
"oOOOOOOOOOOOOOOOOOOOOOOOOOOOOOOOOOOOOOOOOOOOOOOOoOOOOOOOOOOOOOOo",
"oOOOOOOOOOOOOOOOOOOOOOOOOOOOOOOOOOOOOOOOOOOOOOOOoOOOOOOOOOOOOOOo",
"oOOOOOOOOOOOOOOOOOOOOOOOOOOOOOOOOOOOOOOOOOOOOOOOoOOOOOOOOOOOOOOo",
"oOOOOOOOOOOOOOOOOOOOOOOOOOOOOOOOOOOOOOOOOOOOOOOOoOOOOOOOOOOOOOOo",
"oOOOOOOOOOOOOOOOOOOOOOOOOOOOOOOOOOOOOOOOOOOOOOOOoOOOOOOOOOOOOOOo",
"oOOOOOOOOOOOOOOOOOOOOOOOOOOOOOOOOOOOOOOOOOOOOOOOoOOOOOOOOOOOOOOo",
"oooooooooooooooooooooooooooooooooooooooooooooooooooooooooooooooo"
};
