/* XPM */
static char *b2ced684e6c841e9a14a05dd3da3443c6ZWFwYTzONkN09Hh[] = {
/* columns rows colors chars-per-pixel */
"128 128 8 1 ",
"  c black",
". c #0E0E0E",
"X c #3D3939",
"o c #756F6F",
"O c #848282",
"+ c #9D9292",
"@ c #D9CCCC",
"# c white",
/* pixels */
"++++++++++++++++++++++++++++++++++++++++++++++++++++++++++++++++++++++++++++++++++++++++++++++++++++++++++++++++++++++++++++++++",
"++++++++++++++++++++++++++++++++++++++++++++++++++++++++++++++++++++++++++++++++++++++++++++++++++++++++++++++++++++++++++++++++",
"++++++++++++++++++++++++++++++++++++++++++++++++++++++++++++++++++++++++++++++++++++++++++++++++++++++++++++++++++++++++++++++++",
"++++++++++++++++++++++++++++++++++++++++++++++++++++++++++++++++++++++++++++++++++++++++++++++++++++++++++++++++++++++++++++++++",
"++++++++++++++++++++++++++++++++++++++++++++++++++++++++++++++++++++++++++++++++++++++++++++++++++++++++++++++++++++++++++++++++",
"++++++++++++++++++++++++++++++++++++++++++++++++++++++++++++++++++++++++++++++++++++++++++++++++++++++++++++++++++++++++++++++++",
"++++++++++++++++++++++++++++++++++++++++++++++++++++++++++++  ++++++++++++++++++++++++++++++++++++++++++++++++++++++++++++++++++",
"++++++++++++++++++++++++++++++++++++++++++++++++++++++++++++  ++++++++++++++++++++++++++++++++++++++++++++++++++++++++++++++++++",
"++++++++++++++++++++++++++++++++++++++++++++++++++++++++++  XX  ++++++++++++++++++++++++++++++++++++++++++++++++++++++++++++++++",
"++++++++++++++++++++++++++++++++++++++++++++++++++++++++++  XX  ++++++++++++++++++++++++++++++++++++++++++++++++++++++++++++++++",
"++++++++++++++++++++++++++++++++++++++++++++++++++++++++  XXXXXX  ++++++++++++++++++++++++++++++++++++++++++++++++++++++++++++++",
"++++++++++++++++++++++++++++++++++++++++++++++++++++++++  XXXXXX  ++++++++++++++++++++++++++++++++++++++++++++++++++++++++++++++",
"++++++++++++++++++++++++++++++++++++++++++++++++++++++  XXXXXXXXXX  ++++++++++++++++++++++++++++++++++++++++++++++++++++++++++++",
"++++++++++++++++++++++++++++++++++++++++++++++++++++++  XXXXXXXXXX  ++++++++++++++++++++++++++++++++++++++++++++++++++++++++++++",
"++++++++++++++++++++++++++++++++++++++++++++++++++++  XXXXXXXXXXXXXX  ++++++++++++++++++++++++++++++++++++++++++++++++++++++++++",
"++++++++++++++++++++++++++++++++++++++++++++++++++++  XXXXXXXXXXXXXX  ++++++++++++++++++++++++++++++++++++++++++++++++++++++++++",
"++++++++++++++++++++++++++++++++++++++++++++++++++  XXXXXXXXXXXXXXXXXX  ++++++++++++++++++++++++++++++++++++++++++++++++++++++++",
"++++++++++++++++++++++++++++++++++++++++++++++++++  XXXXXXXXXXXXXXXXXX  ++++++++++++++++++++++++++++++++++++++++++++++++++++++++",
"++++++++++++++++++++++++++++++++++++++++++++++++++  XX####XXXXXX####XX  ++++++++++++++++++++++++++++++++++++++++++++++++++++++++",
"++++++++++++++++++++++++++++++++++++++++++++++++++  XX####XXXXXX####XX  ++++++++++++++++++++++++++++++++++++++++++++++++++++++++",
"++++++++++++++++++++++++++++++++++++++++++++++++++  XXooooXXXXXXooooXX  ++++++++++++++++++++++++++++++++++++++++++++++++++++++++",
"++++++++++++++++++++++++++++++++++++++++++++++++++  XXooooXXXXXXooooXX  ++++++++++++++++++++++++++++++++++++++++++++++++++++++++",
"++++++++++++++++++++++++++++......++++++++++++++++  XXXXXXXXXXXXXXXXXX  ++++++++++++++++++++++++++++++++++++++++++++++++++++++++",
"++++++++++++++++++++++++++++......++++++++++++++++  XXXXXXXXXXXXXXXXXX  ++++++++++++++++++++++++++++++++++++++++++++++++++++++++",
"++++++++++++++++++++++++++++..@@....++++++++++++++  XXXXXXooooooXXXXXX  ++++++++++++++++++++++++++++++++++++++++++++++++++++++++",
"++++++++++++++++++++++++++++..@@....++++++++++++++  XXXXXXooooooXXXXXX  ++++++++++++++++++++++++++++++++++++++++++++++++++++++++",
"++++++++++++++++++++++++++++....@@....++++++++++++  XXXXooooooooooXXXX  ++++++++++++++++++++++++++++++++++++++++++++++++++++++++",
"++++++++++++++++++++++++++++....@@....++++++++++++  XXXXooooooooooXXXX  ++++++++++++++++++++++++++++++++++++++++++++++++++++++++",
"++++++++++++++++++++++++++++++....@@....++++++++  XXXXXXXXooooooXXXXXXXX  ++++++++++++++++++++++++++++++++++++++++++++++++++++++",
"++++++++++++++++++++++++++++++....@@....++++++++  XXXXXXXXooooooXXXXXXXX  ++++++++++++++++++++++++++++++++++++++++++++++++++++++",
"++++++++++++++++++++++++++++++++....@@....++++++  ooXXXXXXXXooXXXXXXXXoo  ++++++++++++++++++++++++++++++++++++++++++++++++++++++",
"++++++++++++++++++++++++++++++++....@@....++++++  ooXXXXXXXXooXXXXXXXXoo  ++++++++++++++++++++++++++++++++++++++++++++++++++++++",
"++++++++++++++++++++++++++++++++++....@@....++  ooooooXXXXXXXXXXXXXXoooooo  ++++++++++++++++++++++++++++++++++++++++++++++++++++",
"++++++++++++++++++++++++++++++++++....@@....++  ooooooXXXXXXXXXXXXXXoooooo  ++++++++++++++++++++++++++++++++++++++++++++++++++++",
"++++++++++++++++++++++++++++++++++++....@@....  ooooooXXXXXXXXXXXXXXoooooooo  ++++++++++++++++++++++++++++++++++++++++++++++++++",
"++++++++++++++++++++++++++++++++++++....@@....  ooooooXXXXXXXXXXXXXXoooooooo  ++++++++++++++++++++++++++++++++++++++++++++++++++",
"++++++++++++++++++++++++++++++++++++++......  ooooooXXXXXXXXXXXXXXXXXXoooooo  ++++++++++++++++++++++++++++++++++++++++++++++++++",
"++++++++++++++++++++++++++++++++++++++......  ooooooXXXXXXXXXXXXXXXXXXoooooo  ++++++++++++++++++++++++++++++++++++++++++++++++++",
"++++++++++++++++++++++++++++++++++++++++..  ooooXXXXXXXXXXXXXXXXXXXXXXXXoooooo  ++++++++++++++++++++++++++++++++++++++++++++++++",
"++++++++++++++++++++++++++++++++++++++++..  ooooXXXXXXXXXXXXXXXXXXXXXXXXoooooo  ++++++++++++++++++++++++++++++++++++++++++++++++",
"++++++++++++++++++++++++++++++++++++++++  XXXXXXXXXXXXXXXXXXXXXXXXXXXXXXXXXXXXXX  ++++++++++++++++++++++++++++++++++++++++++++++",
"++++++++++++++++++++++++++++++++++++++++  XXXXXXXXXXXXXXXXXXXXXXXXXXXXXXXXXXXXXX  ++++++++++++++++++++++++++++++++++++++++++++++",
"++++++++++++++++++++++++++++++++++++++  XXXXXXXXXXXXXXXXXXXXXXXXXXXXXXXXXXXXXXXXXX  ++++++++++++++++++++++++++++++++++++++++++++",
"++++++++++++++++++++++++++++++++++++++  XXXXXXXXXXXXXXXXXXXXXXXXXXXXXXXXXXXXXXXXXX  ++++++++++++++++++++++++++++++++++++++++++++",
"++++++++++++++++++++++++++++++++++++  XXXXXXXXXXXXXXXXXXXXXXXXXXXXXXXXXXXXXXXXXXXXXX  ++++++++++++++++++++++++++++++++++++++++++",
"++++++++++++++++++++++++++++++++++++  XXXXXXXXXXXXXXXXXXXXXXXXXXXXXXXXXXXXXXXXXXXXXX  ++++++++++++++++++++++++++++++++++++++++++",
"++++++++++++++++++++++++++++++++++++  XXXXXXXXXXXXXX  XXXXXXXXXXXXXXXX  XXXXXXXXXXXXXX  ++++++++++++++++++++++++++++++++++++++++",
"++++++++++++++++++++++++++++++++++++  XXXXXXXXXXXXXX  XXXXXXXXXXXXXXXX  XXXXXXXXXXXXXX  ++++++++++++++++++++++++++++++++++++++++",
"++++++++++++++++++++++++++++++++++++  XXXXXXXXXXXX  XXXXXXXXXXXXXXXXXXXX  XXXXXXXXXXXX  ++++++++++++++++++++++++++++++++++++++++",
"++++++++++++++++++++++++++++++++++++  XXXXXXXXXXXX  XXXXXXXXXXXXXXXXXXXX  XXXXXXXXXXXX  ++++++++++++++++++++++++++++++++++++++++",
"++++++++++++++++++++++++++++++++++++  XXXXXXXXXXXX  XXXXXXXXXXXXXXXXXXXX  XXXXXXXXXXXX  ++++++++++++++++++++++++++++++++++++++++",
"++++++++++++++++++++++++++++++++++++  XXXXXXXXXXXX  XXXXXXXXXXXXXXXXXXXX  XXXXXXXXXXXX  ++++++++++++++++++++++++++++++++++++++++",
"++++++++++++++++++++++++++++++++++++  XXXXXXXXXXXX  XXXXXXXXXXXXXXXXXXXX  XXXXXXXXXXXX  ++++++++++++++++++++++++++++++++++++++++",
"++++++++++++++++++++++++++++++++++++  XXXXXXXXXXXX  XXXXXXXXXXXXXXXXXXXX  XXXXXXXXXXXX  ++++++++++++++++++++++++++++++++++++++++",
"++++++++++++++++++++++++++++++++++++  XXXXXXXXXXXX  XXXXXXXXXXXXXXXXXXXX  XXXXXXXXXXXX  ++++++++++++++++++++++++++++++++++++++++",
"++++++++++++++++++++++++++++++++++++  XXXXXXXXXXXX  XXXXXXXXXXXXXXXXXXXX  XXXXXXXXXXXX  ++++++++++++++++++++++++++++++++++++++++",
"++++++++++++++++++++++++++++++++++  XXXXXXXXXXXXXX  XXXXXXXXXXXXXXXXXXXX  XXXXXXXXXXXX  ++++++++++++++++++++++++++++++++++++++++",
"++++++++++++++++++++++++++++++++++  XXXXXXXXXXXXXX  XXXXXXXXXXXXXXXXXXXX  XXXXXXXXXXXX  ++++++++++++++++++++++++++++++++++++++++",
"++++++++++++++++++++++++++++++++++  XXXXXXXXXXXXXX  OOOOOOXXXXXXXXOOOOOO  XXXXXXXXXXXXXX  ++++++++++++++++++++++++++++++++++++++",
"++++++++++++++++++++++++++++++++++  XXXXXXXXXXXXXX  OOOOOOXXXXXXXXOOOOOO  XXXXXXXXXXXXXX  ++++++++++++++++++++++++++++++++++++++",
"++++++++++++++++++++++++++++++++++  XXXXXXXXXXXXXX  OOOOOOOOOOOOOOOOOOOO  XXXXXXXXXXXXXX  ++++++++++++++++++++++++++++++++++++++",
"++++++++++++++++++++++++++++++++++  XXXXXXXXXXXXXX  OOOOOOOOOOOOOOOOOOOO  XXXXXXXXXXXXXX  ++++++++++++++++++++++++++++++++++++++",
"++++++++++++++++++++++++++++++++++  XXXXXXXXXXXX  OOOOOOOOOOOOOOOOOOOOOOOO  XXXXXXXXXXXX  ++++++++++++++++++++++++++++++++++++++",
"++++++++++++++++++++++++++++++++++  XXXXXXXXXXXX  OOOOOOOOOOOOOOOOOOOOOOOO  XXXXXXXXXXXX  ++++++++++++++++++++++++++++++++++++++",
"++++++++++++++++++++++++++++++++++  XXXXXXXXXXXX  OOOOOOOOOOOOOOOOOOOOOOOO  XXXXXXXXXXXX  ++++++++++++++++++++++++++++++++++++++",
"++++++++++++++++++++++++++++++++++  XXXXXXXXXXXX  OOOOOOOOOOOOOOOOOOOOOOOO  XXXXXXXXXXXX  ++++++++++++++++++++++++++++++++++++++",
"++++++++++++++++++++++++++++++++++  XXXXXXXXXXXX  OOOOOOOOOOOOOOOOOOOOOOOO  XXXXXXXXXX    ++++++++++++++++++++++++++++++++++++++",
"++++++++++++++++++++++++++++++++++  XXXXXXXXXXXX  OOOOOOOOOOOOOOOOOOOOOOOO  XXXXXXXXXX    ++++++++++++++++++++++++++++++++++++++",
"++++++++++++++++++++++++++++++++++++  XXXXXXXXXX  OOOOooOOooOOooOOooOOooOO  XXXXXXXXXX  ++++++++++++++++++++++++++++++++++++++++",
"++++++++++++++++++++++++++++++++++++  XXXXXXXXXX  OOOOooOOooOOooOOooOOooOO  XXXXXXXXXX  ++++++++++++++++++++++++++++++++++++++++",
"++++++++++++++++++++++++++++++++++++  XXXXXXXXXXXX  oooooooooooooooooooo  XXXXXXXXXXXX  ++++++++++++++++++++++++++++++++++++++++",
"++++++++++++++++++++++++++++++++++++  XXXXXXXXXXXX  oooooooooooooooooooo  XXXXXXXXXXXX  ++++++++++++++++++++++++++++++++++++++++",
"++++++++++++++++++++++++++++++++++++  XXXXXXXXXXXX  oooooooooooooooooooo  XXXXXXXXXX    ++++++++++++++++++++++++++++++++++++++++",
"++++++++++++++++++++++++++++++++++++  XXXXXXXXXXXX  oooooooooooooooooooo  XXXXXXXXXX    ++++++++++++++++++++++++++++++++++++++++",
"++++++++++++++++++++++++++++++++++++  XXXXXXXXXXXX    oooooooooooooooo    XXXXXXXXXX  ++++++++++++++++++++++++++++++++++++++++++",
"++++++++++++++++++++++++++++++++++++  XXXXXXXXXXXX    oooooooooooooooo    XXXXXXXXXX  ++++++++++++++++++++++++++++++++++++++++++",
"++++++++++++++++++++++++++++++++++++  XXXXXXXXXXXX  ++  oo        oo    XXXXXXXXXX    ++++++++++++++++++++++++++++++++++++++++++",
"++++++++++++++++++++++++++++++++++++  XXXXXXXXXXXX  ++  oo        oo    XXXXXXXXXX    ++++++++++++++++++++++++++++++++++++++++++",
"++++++++++++++++++++++++++++++++++++++  XXXXXXXX  ++++++  ++++++++  ++    XXXXXXXX  ++++++++++++++++++++++++++++++++++++++++++++",
"++++++++++++++++++++++++++++++++++++++  XXXXXXXX  ++++++  ++++++++  ++    XXXXXXXX  ++++++++++++++++++++++++++++++++++++++++++++",
"++++++++++++++++++++++++++++++++++++++++  XXXX  ++++++++  ++++++++  ++++    XXXX    ++++++++++++++++++++++++++++++++++++++++++++",
"++++++++++++++++++++++++++++++++++++++++  XXXX  ++++++++  ++++++++  ++++    XXXX    ++++++++++++++++++++++++++++++++++++++++++++",
"++++++++++++++++++++++++++++++++++++++++++  XX  ++++++++  ++++++++  ++++++        ++++++++++++++++++++++++++++++++++++++++++++++",
"++++++++++++++++++++++++++++++++++++++++++  XX  ++++++++  ++++++++  ++++++        ++++++++++++++++++++++++++++++++++++++++++++++",
"++++++++++++++++++++++++++++++++++++++++++++  ++++++++++..++++++++..++++++++++  ++++++++++++++++++++++++++++++++++++++++++++++++",
"++++++++++++++++++++++++++++++++++++++++++++  ++++++++++..++++++++..++++++++++  ++++++++++++++++++++++++++++++++++++++++++++++++",
"++++++++++++++++++++++++++++++++++++++++++++++++++++++++..++++++++..++++++++++++++++++++++++++++++++++++++++++++++++++++++++++++",
"++++++++++++++++++++++++++++++++++++++++++++++++++++++++..++++++++..++++++++++++++++++++++++++++++++++++++++++++++++++++++++++++",
"++++++++++++++++++++++++++++++++++++++++++++++++++++++++..++++++++..++++++++++++++++++++++++++++++++++++++++++++++++++++++++++++",
"++++++++++++++++++++++++++++++++++++++++++++++++++++++++..++++++++..++++++++++++++++++++++++++++++++++++++++++++++++++++++++++++",
"++++++++++++++++++++++++++++++++++++++++++++++++++++++......++++......++++++++++++++++++++++++++++++++++++++++++++++++++++++++++",
"++++++++++++++++++++++++++++++++++++++++++++++++++++++......++++......++++++++++++++++++++++++++++++++++++++++++++++++++++++++++",
"++++++++++++++++++++++++++++++++++++++++++++++++++++++++++++++++++++++++++++++++++++++++++++++++++++++++++++++++++++++++++++++++",
"++++++++++++++++++++++++++++++++++++++++++++++++++++++++++++++++++++++++++++++++++++++++++++++++++++++++++++++++++++++++++++++++",
"++++++++++++++++++++++++++++++++++++++++++++++++++++++++++++++++++++++++++++++++++++++++++++++++++++++++++++++++++++++++++++++++",
"++++++++++++++++++++++++++++++++++++++++++++++++++++++++++++++++++++++++++++++++++++++++++++++++++++++++++++++++++++++++++++++++",
"++++++++++++++++++++++++++++++++++++++++++++++++++++++++++++++++++++++++++++++++++++++++++++++++++++++++++++++++++++++++++++++++",
"++++++++++++++++++++++++++++++++++++++++++++++++++++++++++++++++++++++++++++++++++++++++++++++++++++++++++++++++++++++++++++++++",
"++++++++++++++++++++++++++++++++++++++++++++++++++++++++++++++++++++++++++++++++++++++++++++++++++++++++++++++++++++++++++++++++",
"++++++++++++++++++++++++++++++++++++++++++++++++++++++++++++++++++++++++++++++++++++++++++++++++++++++++++++++++++++++++++++++++",
"++++++++++++++++++++++++++++++++++++++++++++++++++++++++++++++++++++++++++++++++++++++++++++++++++++++++++++++++++++++++++++++++",
"++++++++++++++++++++++++++++++++++++++++++++++++++++++++++++++++++++++++++++++++++++++++++++++++++++++++++++++++++++++++++++++++",
"++++++++++++++++++++++++++++++++++++++++++++++++++++++++++++++++++++++++++++++++++++++++++++++++++++++++++++++++++++++++++++++++",
"++++++++++++++++++++++++++++++++++++++++++++++++++++++++++++++++++++++++++++++++++++++++++++++++++++++++++++++++++++++++++++++++",
"++++++++++++++++++++++++++++++++++++++++++++++++++++++++++++++++++++++++++++++++++++++++++++++++++++++++++++++++++++++++++++++++",
"++++++++++++++++++++++++++++++++++++++++++++++++++++++++++++++++++++++++++++++++++++++++++++++++++++++++++++++++++++++++++++++++",
"++++++++++++++++++++++++++++++++++++++++++++++++++++++++++++++++++++++++++++++++++++++++++++++++++++++++++++++++++++++++++++++++",
"++++++++++++++++++++++++++++++++++++++++++++++++++++++++++++++++++++++++++++++++++++++++++++++++++++++++++++++++++++++++++++++++",
"++++++++++++++++++++++++++++++++++++++++++++++++++++++++++++++++++++++++++++++++++++++++++++++++++++++++++++++++++++++++++++++++",
"++++++++++++++++++++++++++++++++++++++++++++++++++++++++++++++++++++++++++++++++++++++++++++++++++++++++++++++++++++++++++++++++",
"++++++++++++++++++++++++++++++++++++++++++++++++++++++++++++++++++++++++++++++++++++++++++++++++++++++++++++++++++++++++++++++++",
"++++++++++++++++++++++++++++++++++++++++++++++++++++++++++++++++++++++++++++++++++++++++++++++++++++++++++++++++++++++++++++++++",
"++++++++++++++++++++++++++++++++++++++++++++++++++++++++++++++++++++++++++++++++++++++++++++++++++++++++++++++++++++++++++++++++",
"++++++++++++++++++++++++++++++++++++++++++++++++++++++++++++++++++++++++++++++++++++++++++++++++++++++++++++++++++++++++++++++++",
"++++++++++++++++++++++++++++++++++++++++++++++++++++++++++++++++++++++++++++++++++++++++++++++++++++++++++++++++++++++++++++++++",
"++++++++++++++++++++++++++++++++++++++++++++++++++++++++++++++++++++++++++++++++++++++++++++++++++++++++++++++++++++++++++++++++",
"++++++++++++++++++++++++++++++++++++++++++++++++++++++++++++++++++++++++++++++++++++++++++++++++++++++++++++++++++++++++++++++++",
"++++++++++++++++++++++++++++++++++++++++++++++++++++++++++++++++++++++++++++++++++++++++++++++++++++++++++++++++++++++++++++++++",
"++++++++++++++++++++++++++++++++++++++++++++++++++++++++++++++++++++++++++++++++++++++++++++++++++++++++++++++++++++++++++++++++",
"++++++++++++++++++++++++++++++++++++++++++++++++++++++++++++++++++++++++++++++++++++++++++++++++++++++++++++++++++++++++++++++++",
"++++++++++++++++++++++++++++++++++++++++++++++++++++++++++++++++++++++++++++++++++++++++++++++++++++++++++++++++++++++++++++++++",
"++++++++++++++++++++++++++++++++++++++++++++++++++++++++++++++++++++++++++++++++++++++++++++++++++++++++++++++++++++++++++++++++",
"++++++++++++++++++++++++++++++++++++++++++++++++++++++++++++++++++++++++++++++++++++++++++++++++++++++++++++++++++++++++++++++++",
"++++++++++++++++++++++++++++++++++++++++++++++++++++++++++++++++++++++++++++++++++++++++++++++++++++++++++++++++++++++++++++++++",
"++++++++++++++++++++++++++++++++++++++++++++++++++++++++++++++++++++++++++++++++++++++++++++++++++++++++++++++++++++++++++++++++",
"++++++++++++++++++++++++++++++++++++++++++++++++++++++++++++++++++++++++++++++++++++++++++++++++++++++++++++++++++++++++++++++++",
"++++++++++++++++++++++++++++++++++++++++++++++++++++++++++++++++++++++++++++++++++++++++++++++++++++++++++++++++++++++++++++++++",
"++++++++++++++++++++++++++++++++++++++++++++++++++++++++++++++++++++++++++++++++++++++++++++++++++++++++++++++++++++++++++++++++"
};
