/* XPM */
static char *d535769a59af4f10a1aa783ab87339249bgrDq8P9Xhrdeae[] = {
/* columns rows colors chars-per-pixel */
"64 64 8 1 ",
"  c black",
". c #0E0E0E",
"X c #3D3939",
"o c #756F6F",
"O c #848282",
"+ c #9D9292",
"@ c #D9CCCC",
"# c white",
/* pixels */
"++++++++++++++++++++++++++++++++++++++++++++++++++++++++++++++++",
"++++++++++++++++++++++++++++++++++++++++++++++++++++++++++++++++",
"++++++++++++++++++++++++++++++++++++++++++++++++++++++++++++++++",
"++++++++++++++++++++++++++++++++++++++++++++++++++++++++++++++++",
"++++++++++++++++++++++++++++++++++++++++++++++++++++++++++++++++",
"++++++++++++++++++++++++++++++++++++++++++++++++++++++++++++++++",
"++++++++++++++++++++++++++++++++++++++++++++++++++++++++++++++++",
"++++++++++++++++++++++++++++++++++++++++++++++++++++++++++++++++",
"++++++++++++++++++++++++++++++++++++++++++++++++++++++++++++++++",
"++++++++++++++++++++++++++++++++++++++++++++++++++++++++++++++++",
"++++++++++++++++++++++++++++++ +++++++++++++++++++++++++++++++++",
"+++++++++++++++++++++++++++++ X ++++++++++++++++++++++++++++++++",
"++++++++++++++++++++++++++++ XXX +++++++++++++++++++++++++++++++",
"+++++++++++++++++++++++++++ XXXXX ++++++++++++++++++++++++++++++",
"++++++++++++++++++++++++++ XXXXXXX +++++++++++++++++++++++++++++",
"+++++++++++++++++++++++++ XXXXXXXXX ++++++++++++++++++++++++++++",
"+++++++++++++++++++++++++ X##XXX##X ++++++++++++++++++++++++++++",
"+++++++++++++++++++++++++ XooXXXooX ++++++++++++++++++++++++++++",
"++++++++++++++...++++++++ XXXXXXXXX ++++++++++++++++++++++++++++",
"++++++++++++++.@..+++++++ XXXoooXXX ++++++++++++++++++++++++++++",
"++++++++++++++..@..++++++ XXoooooXX ++++++++++++++++++++++++++++",
"+++++++++++++++..@..++++ XXXXoooXXXX +++++++++++++++++++++++++++",
"++++++++++++++++..@..+++ oXXXXoXXXXo +++++++++++++++++++++++++++",
"+++++++++++++++++..@..+ oooXXXXXXXooo ++++++++++++++++++++++++++",
"++++++++++++++++++..@.. oooXXXXXXXoooo +++++++++++++++++++++++++",
"+++++++++++++++++++... oooXXXXXXXXXooo +++++++++++++++++++++++++",
"++++++++++++++++++++. ooXXXXXXXXXXXXooo ++++++++++++++++++++++++",
"++++++++++++++++++++ XXXXXXXXXXXXXXXXXXX +++++++++++++++++++++++",
"+++++++++++++++++++ XXXXXXXXXXXXXXXXXXXXX ++++++++++++++++++++++",
"++++++++++++++++++ XXXXXXXXXXXXXXXXXXXXXXX +++++++++++++++++++++",
"++++++++++++++++++ XXXXXXX XXXXXXXX XXXXXXX ++++++++++++++++++++",
"++++++++++++++++++ XXXXXX XXXXXXXXXX XXXXXX ++++++++++++++++++++",
"++++++++++++++++++ XXXXXX XXXXXXXXXX XXXXXX ++++++++++++++++++++",
"++++++++++++++++++ XXXXXX XXXXXXXXXX XXXXXX ++++++++++++++++++++",
"++++++++++++++++++ XXXXXX XXXXXXXXXX XXXXXX ++++++++++++++++++++",
"+++++++++++++++++ XXXXXXX XXXXXXXXXX XXXXXX ++++++++++++++++++++",
"+++++++++++++++++ XXXXXXX OOOXXXXOOO XXXXXXX +++++++++++++++++++",
"+++++++++++++++++ XXXXXXX OOOOOOOOOO XXXXXXX +++++++++++++++++++",
"+++++++++++++++++ XXXXXX OOOOOOOOOOOO XXXXXX +++++++++++++++++++",
"+++++++++++++++++ XXXXXX OOOOOOOOOOOO XXXXXX +++++++++++++++++++",
"+++++++++++++++++ XXXXXX OOOOOOOOOOOO XXXXX  +++++++++++++++++++",
"++++++++++++++++++ XXXXX OOoOoOoOoOoO XXXXX ++++++++++++++++++++",
"++++++++++++++++++ XXXXXX oooooooooo XXXXXX ++++++++++++++++++++",
"++++++++++++++++++ XXXXXX oooooooooo XXXXX  ++++++++++++++++++++",
"++++++++++++++++++ XXXXXX  oooooooo  XXXXX +++++++++++++++++++++",
"++++++++++++++++++ XXXXXX + o    o  XXXXX  +++++++++++++++++++++",
"+++++++++++++++++++ XXXX +++ ++++ +  XXXX ++++++++++++++++++++++",
"++++++++++++++++++++ XX ++++ ++++ ++  XX  ++++++++++++++++++++++",
"+++++++++++++++++++++ X ++++ ++++ +++    +++++++++++++++++++++++",
"++++++++++++++++++++++ +++++.++++.+++++ ++++++++++++++++++++++++",
"++++++++++++++++++++++++++++.++++.++++++++++++++++++++++++++++++",
"++++++++++++++++++++++++++++.++++.++++++++++++++++++++++++++++++",
"+++++++++++++++++++++++++++...++...+++++++++++++++++++++++++++++",
"++++++++++++++++++++++++++++++++++++++++++++++++++++++++++++++++",
"++++++++++++++++++++++++++++++++++++++++++++++++++++++++++++++++",
"++++++++++++++++++++++++++++++++++++++++++++++++++++++++++++++++",
"++++++++++++++++++++++++++++++++++++++++++++++++++++++++++++++++",
"++++++++++++++++++++++++++++++++++++++++++++++++++++++++++++++++",
"++++++++++++++++++++++++++++++++++++++++++++++++++++++++++++++++",
"++++++++++++++++++++++++++++++++++++++++++++++++++++++++++++++++",
"++++++++++++++++++++++++++++++++++++++++++++++++++++++++++++++++",
"++++++++++++++++++++++++++++++++++++++++++++++++++++++++++++++++",
"++++++++++++++++++++++++++++++++++++++++++++++++++++++++++++++++",
"++++++++++++++++++++++++++++++++++++++++++++++++++++++++++++++++",
};
