/* XPM */
static char *result[] = {
/* columns rows colors chars-per-pixel */
"64 64 3 1 ",
"  c black",
". c #3C3A3A",
"X c #676363",
/* pixels */
"................................................................",
".XXXXXXXXXXXXXXX.XXXXXXXXXXXXXXXXXXXXXXXXXXXXXXXXXXXXXXXXXXXXXX.",
".XXXXXXXXXXXXXXX.XXXXXXXXXXXXXXXXXXXXXXXXXXXXXXXXXXXXXXXXXXXXXX.",
".XXXXXXXXXXXXXXX.XXXXXXXXXX           XXXXXXXXXXXXXXXXXXXXXXXXX.",
".XXXXXXXXXXXXXXX.XXXXXXXXX             XXXXXXXXXXXXXXXXXXXXXXXX.",
".XXXXXXXXXXXXXXX.XXXXXXXX               XXXXXXXXXXXXXXXXXXXXXXX.",
".XXXXXXXXXXXXXXX.XXXXXXX                 XXXXXXXXXXXXXXXXXXXXXX.",
".XXXXXXXXXXXXXXX.XXXXXX                   XXXXXXXXXXXXXXXXXXXXX.",
".XXXXXXXXXXXXXXX.XXXXX                     XXXXXXXXXXXXXXXXXXXX.",
".XXXXXXXXXXXXXXX.XXXX                       XXXXXXXXXXXXXXXXXXX.",
".XXXXXXXXXXXXXXX.XXX                         XXXXXXXXXXXXXXXXXX.",
".XXXXXXXXXXXXXXX.XX                           XXXXXXXXXXXXXXXXX.",
".XXXXXXXXXXXXXXX.X                             XXXXXXXXXXXXXXXX.",
".XXXXXXXXXXXXXXX.X                             XXXXXXXXXXXXXXXX.",
".XXXXXXXXXXXXXXX.                               XXXXXXXXXXXXXXX.",
".XXXXXXXXXXXXXXX.                               XXXXXXXXXXXXXXX.",
".XXXXXXXXXXXXXXX.                               XXXXXXXXXXXXXXX.",
".XXXXXXXXXXXXXXX.                               XXXXXXXXXXXXXXX.",
".XXXXXXXXXXXXXXX.                               XXXXXXXXXXXXXXX.",
".XXXXXXXXXXXXXXX.                               XXXXXXXXXXXXXXX.",
".XXXXXXXXXXXXXXX.                               XXXXXXXXXXXXXXX.",
".XXXXXXXXXXXXXXX.                               XXXXXXXXXXXXXXX.",
".XXXXXXXXXXXXXXX.                               XXXXXXXXXXXXXXX.",
".XXXXXXXXXXXXXXX.                               XXXXXXXXXXXXXXX.",
".XXXXXXXXXXXXXXX.                               XXXXXXXXXXXXXXX.",
".XXXXXXXXXXXXXXX.                               XXXXXXXXXXXXXXX.",
".XXXXXXXXXXXXXXX.                               XXXXXXXXXXXXXXX.",
".XXXXXXXXXXXXXXX.                               XXXXXXXXXXXXXXX.",
".XXXXXXXXXXXXXXX.                               XXXXXXXXXXXXXXX.",
".XXXXXXXXXXXXXXX.                               XXXXXXXXXXXXXXX.",
".XXXXXXXXXXXXXXX.                               XXXXXXXXXXXXXXX.",
".XXXXXXXXXXXXXXX.                               XXXXXXXXXXXXXXX.",
".................                               ................",
".XXXXXXXXXXXXXXXX                               .XXXXXXXXXXXXXX.",
".XXXXXXXXXXXXXXXX                               .XXXXXXXXXXXXXX.",
".XXXXXXXXXXXXXXXX                               .XXXXXXXXXXXXXX.",
".XXXXXXXXXXXXXXXX                               .XXXXXXXXXXXXXX.",
".XXXXXXXXXXXXXXXX                               .XXXXXXXXXXXXXX.",
".XXXXXXXXXXXXXXXX                               .XXXXXXXXXXXXXX.",
".XXXXXXXXXXXXXXXX                               .XXXXXXXXXXXXXX.",
".XXXXXXXXXXXXXXXX                               .XXXXXXXXXXXXXX.",
".XXXXXXXXXXXXXXXX                               .XXXXXXXXXXXXXX.",
".XXXXXXXXXXXXXXXX                               .XXXXXXXXXXXXXX.",
".XXXXXXXXXXXXXXXX                               .XXXXXXXXXXXXXX.",
".XXXXXXXXXXXXXXXX                               .XXXXXXXXXXXXXX.",
".XXXXXXXXXXXXXXXX                               .XXXXXXXXXXXXXX.",
".XXXXXXXXXXXXXXXX                               .XXXXXXXXXXXXXX.",
".XXXXXXXXXXXXXXXX                               .XXXXXXXXXXXXXX.",
".XXXXXXXXXXXXXXXX                               .XXXXXXXXXXXXXX.",
".XXXXXXXXXXXXXXXX                               .XXXXXXXXXXXXXX.",
".XXXXXXXXXXXXXXXX                               .XXXXXXXXXXXXXX.",
".XXXXXXXXXXXXXXXX                               .XXXXXXXXXXXXXX.",
".XXXXXXXXXXXXXXXX                               .XXXXXXXXXXXXXX.",
".XXXXXXXXXXXXXXXX                               .XXXXXXXXXXXXXX.",
".XXXXXXXXXXXXXXXX                               .XXXXXXXXXXXXXX.",
".XXXXXXXXXXXXXXXX                               .XXXXXXXXXXXXXX.",
".XXXXXXXXXXXXXXXXXXXXXXXXXXXXXXXXXXXXXXXXXXXXXXX.XXXXXXXXXXXXXX.",
".XXXXXXXXXXXXXXXXXXXXXXXXXXXXXXXXXXXXXXXXXXXXXXX.XXXXXXXXXXXXXX.",
".XXXXXXXXXXXXXXXXXXXXXXXXXXXXXXXXXXXXXXXXXXXXXXX.XXXXXXXXXXXXXX.",
".XXXXXXXXXXXXXXXXX                             X.XXXXXXXXXXXXXX.",
".XXXXXXXXXXXXXXXX                               .XXXXXXXXXXXXXX.",
".XXXXXXXXXXXXXXXXX                             X.XXXXXXXXXXXXXX.",
".XXXXXXXXXXXXXXXXXXXXXXXXXXXXXXXXXXXXXXXXXXXXXXX.XXXXXXXXXXXXXX.",
"................................................................"
};
