/* XPM */
static char *_392ed1f959d483c8ebb645eb2835eaevfsjWX6eDe8fTYyl[] = {
/* columns rows colors chars-per-pixel */
"64 64 9 1 ",
"  c black",
". c #0E0E0E",
"X c #2C2B2B",
"o c #3C3A3A",
"O c #676363",
"+ c #756F6F",
"@ c #CF203B",
"# c #848282",
"$ c #D9CCCC",
/* pixels */
"oooooooooooooooooooooooooooooooooooooooooooooooooooooooooooooooo",
"oOOOOOOOOOOOOOOOoOOOOOOOOOOOOOOOOOOOOOOOOOOOOOOOOOOOOOOOOOOOOOOo",
"oOOOOOOOOOOOOOOOoOOOOOOOOOOOOOOOOOOOOOOOOOOOOOOOOOOOOOOOOOOOOOOo",
"oOOOOOOOOOOOOOOOoOOOOOOOOOOOOOOOOOOOOOOOOOOOOOOOOOOOOOOOOOOOOOOo",
"oOOOOOOOOOOOOOOOoOOOOOOOOOOOOOOOOOOOOOOOOOOOOOOOOOOOOOOOOOOOOOOo",
"oOOOOOOOOOOOOOOOoOOOOOOOOOOOOOOOOOOOOOOOOOOOOOOOOOOOOOOOOOOOOOOo",
"oOOOOOOOOOOOOOOOoOOOOOOOOOOOOOOOOOOOOOOOOOOOOOOOOOOOOOOOOOOOOOOo",
"oOOOOOOOOOOOOOOOoOOOOOOOOOOOOOOOOOOOOOOOOOOOOOOOOOOOOOOOOOOOOOOo",
"oOOOOOOOOOOOOOOOoOOOOOOOOOOOOOOOOOOOOOOOOOOOOOOOOOOOOOOOOOOOOOOo",
"oOOOOOOOOOOOOOOOoOOOOOOOOOOOOOOOOOOOOOOOOOOOOOOOOOOOOOOOOOOOOOOo",
"oOOOOOOOOOOOOOOOoOOOOOOOOOOOOOOOOOOOOOOOOOOOOOOOOOOOOOOOOOOOOOOo",
"oOOOOOOOOOOOOOOOoOOOOOOOOOOOOO OOOOOOOOOOOOOOOOOOOOOOOOOOOOOOOOo",
"oOOOOOOOOOOOOOOOoOOOOOOOOOOOO o OOOOOOOOOOOOOOOOOOOOOOOOOOOOOOOo",
"oOOOOOOOOOOOOOOOoOOOOOOOOOOO ooo OOOOOOOOOOOOOOOOOOOOOOOOOOOOOOo",
"oOOOOOOOOOOOOOOOoOOOOOOOOOO ooooo OOOOOOOOOOOOOOOOOOOOOOOOOOOOOo",
"oOOOOOOOOOOOOOOOoOOOOOOOOO ooooooo OOOOOOOOOOOOOOOOOOOOOOOOOOOOo",
"oOOOOOOOOOOOOOOOoOOOOOOOO ooooooooo OOOOOOOOOOOOOOOOOOOOOOOOOOOo",
"oOOOOOOOOOOOOOOOoOOOOOOOO ooooooooo OOOOOOOOOOOOOOOOOOOOOOOOOOOo",
"oOOOOOOOOOOOOOOOoOOOOOOOO ooooooooo OOOOOOOOOOOOOOOOOOOOOOOOOOOo",
"oOOOOOOOOOOOOOOOoOOOOOOOO ooooooooo OOOOOOOOOOOOOOOOOOOOOOOOOOOo",
"oOOOOOOOOOOOOOOOoOOOOOOOO oooooo    OOOOOOOO...OOOOOOOOOOOOOOOOo",
"oOOOOOOOOOOOOOOOoOOOOOOOO oooooo XX OOOOOOO....OOOOOOOOOOOOOOOOo",
"oOOOOOOOOOOOOOOOoOOOOOOO ooooooo X$X OOOOO.....OOOOOOOOOOOOOOOOo",
"oOOOOOOOOOOOOOOOoOOOOOOO +oooooo  XXX OOO.....OOOOOOOOOOOOOOOOOo",
"oOOOOOOOOOOOOOOOoOOOOOO +++ooooooo XXX O.....OOOOOOOOOOOOOOOOOOo",
"oOOOOOOOOOOOOOOOoOOOOOO +++ooooooo+ X@ .....OOOOOOOOOOOOOOOOOOOo",
"oOOOOOOOOOOOOOOOoOOOOO +++ooooooooo @@ ....OOOOOOOOOOOOOOOOOOOOo",
"oOOOOOOOOOOOOOOOoOOOO ++oooooooooo @@$@ ..OOOOOOOOOOOOOOOOOOOOOo",
"oOOOOOOOOOOOOOOOoOOO oooooooooooo @@@$$@ . OOOOOOOOOOOOOOOOOOOOo",
"oOOOOOOOOOOOOOOOoO  oooooooooooo @@@$@@@@@X OOOOOOOOOOOOOOOOOOOo",
"oOOOOOOOOOOOOOOOo ooooooooooooo @@@$@@@  XXX OOOOOOOOOOOOOOOOOOo",
"oOOOOOOOOOOOOOOOo oooooooo ooo @@@$@@@ o  XXX  OOOOOOOOOOOOOOOOo",
"ooooooooooooooooo ooooooo ooo @@@$@@@ oooo X$X ooooooooooooooooo",
"oOOOOOOOOOOOOOOOO ooooooo oo @@@$@@@ oooooo XX OoOOOOOOOOOOOOOOo",
"oOOOOOOOOOOOOOOOO ooooooo o @@$$@@@  ooooooo   OoOOOOOOOOOOOOOOo",
"oOOOOOOOOOOOOOOOO ooooooo  @@@$$@@ o ooooooo OOOoOOOOOOOOOOOOOOo",
"oOOOOOOOOOOOOOOOO ooooooo @@$$@@@ oo ooooooo OOOoOOOOOOOOOOOOOOo",
"oOOOOOOOOOOOOOOOO oooooo @@@$$@@ ### ooooooo OOOoOOOOOOOOOOOOOOo",
"oOOOOOOOOOOOOOOOO oooooo @$$@@@ #### ooooooo OOOoOOOOOOOOOOOOOOo",
"oOOOOOOOOOOOOOOOO oooooo @$$@@ ###### oooooo OOOoOOOOOOOOOOOOOOo",
"oOOOOOOOOOOOOOOOO oooooo @@@@ ####### oooooo OOOoOOOOOOOOOOOOOOo",
"oOOOOOOOOOOOOOOOO oooooo      ####### ooooo  OOOoOOOOOOOOOOOOOOo",
"oOOOOOOOOOOOOOOOOO ooooo ##+#+#+#+#+# ooooo OOOOoOOOOOOOOOOOOOOo",
"oOOOOOOOOOOOOOOOOO oooooo ++++++++++ oooooo OOOOoOOOOOOOOOOOOOOo",
"oOOOOOOOOOOOOOOOOO oooooo ++++++++++ ooooo  OOOOoOOOOOOOOOOOOOOo",
"oOOOOOOOOOOOOOOOOO oooooo  ++++++++  ooooo OOOOOoOOOOOOOOOOOOOOo",
"oOOOOOOOOOOOOOOOOO oooooo O +    +  ooooo  OOOOOoOOOOOOOOOOOOOOo",
"oOOOOOOOOOOOOOOOOOO oooo OOO OOOO O  oooo OOOOOOoOOOOOOOOOOOOOOo",
"oOOOOOOOOOOOOOOOOOOO oo OOOO OOOO OO  oo  OOOOOOoOOOOOOOOOOOOOOo",
"oOOOOOOOOOOOOOOOOOOOO o OOOO OOOO OOO    OOOOOOOoOOOOOOOOOOOOOOo",
"oOOOOOOOOOOOOOOOOOOOOO OOOOO.OOOO.OOOOO OOOOOOOOoOOOOOOOOOOOOOOo",
"oOOOOOOOOOOOOOOOOOOOOOOOOOOO.OOOO.OOOOOOOOOOOOOOoOOOOOOOOOOOOOOo",
"oOOOOOOOOOOOOOOOOOOOOOOOOOOO.OOOO.OOOOOOOOOOOOOOoOOOOOOOOOOOOOOo",
"oOOOOOOOOOOOOOOOOOOOOOOOOOO...OO...OOOOOOOOOOOOOoOOOOOOOOOOOOOOo",
"oOOOOOOOOOOOOOOOOOOOOOOOOOOOOOOOOOOOOOOOOOOOOOOOoOOOOOOOOOOOOOOo",
"oOOOOOOOOOOOOOOOOOOOOOOOOOOOOOOOOOOOOOOOOOOOOOOOoOOOOOOOOOOOOOOo",
"oOOOOOOOOOOOOOOOOOOOOOOOOOOOOOOOOOOOOOOOOOOOOOOOoOOOOOOOOOOOOOOo",
"oOOOOOOOOOOOOOOOOOOOOOOOOOOOOOOOOOOOOOOOOOOOOOOOoOOOOOOOOOOOOOOo",
"oOOOOOOOOOOOOOOOOOOOOOOOOOOOOOOOOOOOOOOOOOOOOOOOoOOOOOOOOOOOOOOo",
"oOOOOOOOOOOOOOOOOOOOOOOOOOOOOOOOOOOOOOOOOOOOOOOOoOOOOOOOOOOOOOOo",
"oOOOOOOOOOOOOOOOOOOOOOOOOOOOOOOOOOOOOOOOOOOOOOOOoOOOOOOOOOOOOOOo",
"oOOOOOOOOOOOOOOOOOOOOOOOOOOOOOOOOOOOOOOOOOOOOOOOoOOOOOOOOOOOOOOo",
"oOOOOOOOOOOOOOOOOOOOOOOOOOOOOOOOOOOOOOOOOOOOOOOOoOOOOOOOOOOOOOOo",
"oooooooooooooooooooooooooooooooooooooooooooooooooooooooooooooooo"
};
