/* XPM */
static char *_18c0e8902d44350de9db732b575b626FpWrX792TsvJaku1[] = {
/* columns rows colors chars-per-pixel */
"64 64 8 1 ",
"  c black",
". c #0E0E0E",
"X c #3C3A3A",
"o c #676363",
"O c #756F6F",
"+ c #848282",
"@ c #D9CCCC",
"# c white",
/* pixels */
"XXXXXXXXXXXXXXXXXXXXXXXXXXXXXXXXXXXXXXXXXXXXXXXXXXXXXXXXXXXXXXXX",
"XoooooooooooooooXooooooooooooooooooooooooooooooooooooooooooooooX",
"XoooooooooooooooXooooooooooooooooooooooooooooooooooooooooooooooX",
"XoooooooooooooooXooooooooooooooooooooooooooooooooooooooooooooooX",
"XoooooooooooooooXooooooooooooooooooooooooooooooooooooooooooooooX",
"XoooooooooooooooXooooooooooooooooooooooooooooooooooooooooooooooX",
"XoooooooooooooooXooooooooooooooooooooooooooooooooooooooooooooooX",
"XoooooooooooooooXooooooooooooooooooooooooooooooooooooooooooooooX",
"XoooooooooooooooXooooooooooooooooooooooooooooooooooooooooooooooX",
"XoooooooooooooooXooooooooooooooooooooooooooooooooooooooooooooooX",
"XoooooooooooooooXooooooooooooooooooooooooooooooooooooooooooooooX",
"XoooooooooooooooXooooooooooooo ooooooooooooooooooooooooooooooooX",
"XoooooooooooooooXoooooooooooo X oooooooooooooooooooooooooooooooX",
"XoooooooooooooooXooooooooooo XXX ooooooooooooooooooooooooooooooX",
"XoooooooooooooooXoooooooooo XXXXX oooooooooooooooooooooooooooooX",
"XoooooooooooooooXooooooooo XXXXXXX ooooooooooooooooooooooooooooX",
"XoooooooooooooooXoooooooo XXXXXXXXX oooooooooooooooooooooooooooX",
"XoooooooooooooooXoooooooo X##XXX##X oooooooooooooooooooooooooooX",
"XoooooooooooooooXoooooooo XOOXXXOOX oooooooooooooooooooooooooooX",
"Xooooooooooooo...oooooooo XXXXXXXXX oooooooooooooooooooooooooooX",
"Xooooooooooooo.@..ooooooo XXXOOOXXX oooooooooooooooooooooooooooX",
"Xooooooooooooo..@..oooooo XXOOOOOXX oooooooooooooooooooooooooooX",
"Xoooooooooooooo..@..oooo XXXXOOOXXXX ooooooooooooooooooooooooooX",
"Xooooooooooooooo..@..ooo OXXXXOXXXXO ooooooooooooooooooooooooooX",
"XoooooooooooooooX..@..o OOOXXXXXXXOOO oooooooooooooooooooooooooX",
"XoooooooooooooooXo..@.. OOOXXXXXXXOOOO ooooooooooooooooooooooooX",
"XoooooooooooooooXoo... OOOXXXXXXXXXOOO ooooooooooooooooooooooooX",
"XoooooooooooooooXooo. OOXXXXXXXXXXXXOOO oooooooooooooooooooooooX",
"XoooooooooooooooXooo XXXXXXXXXXXXXXXXXXX ooooooooooooooooooooooX",
"XoooooooooooooooXo  XXXXXXXXXXXXXXXXXXXXX oooooooooooooooooooooX",
"XoooooooooooooooX XXXXXXXXXXXXXXXXXXXXXXXX  oooooooooooooooooooX",
"XoooooooooooooooX XXXXXXXX XXXXXXXX XXXXXXXX ooooooooooooooooooX",
"XXXXXXXXXXXXXXXXX XXXXXXX XXXXXXXXXX XXXXXXX XXXXXXXXXXXXXXXXXXX",
"Xoooooooooooooooo XXXXXXX XXXXXXXXXX XXXXXXX oooXooooooooooooooX",
"Xoooooooooooooooo XXXXXXX XXXXXXXXXX XXXXXXX oooXooooooooooooooX",
"Xoooooooooooooooo XXXXXXX XXXXXXXXXX XXXXXXX oooXooooooooooooooX",
"Xoooooooooooooooo XXXXXXX XXXXXXXXXX XXXXXXX oooXooooooooooooooX",
"Xoooooooooooooooo XXXXXXX +++XXXX+++ XXXXXXX oooXooooooooooooooX",
"Xoooooooooooooooo XXXXXXX ++++++++++ XXXXXXX oooXooooooooooooooX",
"Xoooooooooooooooo XXXXXX ++++++++++++ XXXXXX oooXooooooooooooooX",
"Xoooooooooooooooo XXXXXX ++++++++++++ XXXXXX oooXooooooooooooooX",
"Xoooooooooooooooo XXXXXX ++++++++++++ XXXXX  oooXooooooooooooooX",
"Xooooooooooooooooo XXXXX ++O+O+O+O+O+ XXXXX ooooXooooooooooooooX",
"Xooooooooooooooooo XXXXXX OOOOOOOOOO XXXXXX ooooXooooooooooooooX",
"Xooooooooooooooooo XXXXXX OOOOOOOOOO XXXXX  ooooXooooooooooooooX",
"Xooooooooooooooooo XXXXXX  OOOOOOOO  XXXXX oooooXooooooooooooooX",
"Xooooooooooooooooo XXXXXX o O    O  XXXXX  oooooXooooooooooooooX",
"Xoooooooooooooooooo XXXX ooo oooo o  XXXX ooooooXooooooooooooooX",
"Xooooooooooooooooooo XX oooo oooo oo  XX  ooooooXooooooooooooooX",
"Xoooooooooooooooooooo X oooo oooo ooo    oooooooXooooooooooooooX",
"Xooooooooooooooooooooo ooooo.oooo.ooooo ooooooooXooooooooooooooX",
"Xooooooooooooooooooooooooooo.oooo.ooooooooooooooXooooooooooooooX",
"Xooooooooooooooooooooooooooo.oooo.ooooooooooooooXooooooooooooooX",
"Xoooooooooooooooooooooooooo...oo...oooooooooooooXooooooooooooooX",
"XoooooooooooooooooooooooooooooooooooooooooooooooXooooooooooooooX",
"XoooooooooooooooooooooooooooooooooooooooooooooooXooooooooooooooX",
"XoooooooooooooooooooooooooooooooooooooooooooooooXooooooooooooooX",
"XoooooooooooooooooooooooooooooooooooooooooooooooXooooooooooooooX",
"XoooooooooooooooooooooooooooooooooooooooooooooooXooooooooooooooX",
"XoooooooooooooooooooooooooooooooooooooooooooooooXooooooooooooooX",
"XoooooooooooooooooooooooooooooooooooooooooooooooXooooooooooooooX",
"XoooooooooooooooooooooooooooooooooooooooooooooooXooooooooooooooX",
"XoooooooooooooooooooooooooooooooooooooooooooooooXooooooooooooooX",
"XXXXXXXXXXXXXXXXXXXXXXXXXXXXXXXXXXXXXXXXXXXXXXXXXXXXXXXXXXXXXXXX"
};
