/* XPM */
static char *cdb522de3fc341c99fb12559d4adef62yXQvWXZuqOXgvyoV[] = {
/* columns rows colors chars-per-pixel */
"64 65 152 2 ",
"   c #010101",
".  c #0B0102",
"X  c #030308",
"o  c #090909",
"O  c #130301",
"+  c #180200",
"@  c #1D0E00",
"#  c #0F1313",
"$  c #121212",
"%  c #1B1B1B",
"&  c #210301",
"*  c #240A00",
"=  c #2D0A03",
"-  c #2E1000",
";  c #252525",
":  c #282828",
">  c #3C3A3A",
",  c #5D2315",
"<  c #5C2B16",
"1  c #602213",
"2  c #494949",
"3  c #5A5F5D",
"4  c #676363",
"5  c #6D6D6D",
"6  c #ED0000",
"7  c #876720",
"8  c #896426",
"9  c #EC6E0A",
"0  c #E67603",
"q  c #EB7604",
"w  c #E67903",
"e  c #EA7901",
"r  c #E7750A",
"t  c #EB7609",
"y  c #E7790E",
"u  c #EB7909",
"i  c #F07505",
"p  c #F5700A",
"a  c #E57611",
"s  c #EA7614",
"d  c #E37914",
"f  c #E1741F",
"g  c #E37919",
"h  c #EA7F18",
"j  c #DA7522",
"k  c #BD9730",
"l  c #EF8E0C",
"z  c #F58E05",
"x  c #FA8F04",
"c  c #F78F08",
"v  c #FB8F0A",
"b  c #EF9603",
"n  c #EF9409",
"m  c #EF990B",
"M  c #F69203",
"N  c #F99203",
"B  c #F49C02",
"V  c #F49209",
"C  c #FA920A",
"Z  c #F89809",
"A  c #E5841D",
"S  c #F48F17",
"D  c #EC9414",
"F  c #F39214",
"G  c #EFAE05",
"H  c #EEAE0C",
"J  c #FEA505",
"K  c #F3AD03",
"L  c #F6AE05",
"P  c #F8AC04",
"I  c #FAAC05",
"U  c #FDA508",
"Y  c #F3AB0B",
"T  c #F6AB0A",
"R  c #F2AC09",
"E  c #F2AE08",
"W  c #F5AE0B",
"Q  c #F7A80E",
"!  c #F2AE0C",
"~  c #F6AD0C",
"^  c #F8AB08",
"/  c #F8AC08",
"(  c #FCA80E",
")  c #EEB008",
"_  c #F4B104",
"`  c #F8AB12",
"'  c #F2AE18",
"]  c #F4AA1E",
"[  c #D78D27",
"{  c #D6882C",
"}  c #DC8B2B",
"|  c #C59224",
" . c #C99223",
".. c #C1942B",
"X. c #DA8E38",
"o. c #C69631",
"O. c #C59831",
"+. c #80F500",
"@. c #E7B55D",
"#. c #E4B36B",
"$. c #E1B672",
"%. c #E3BD74",
"&. c #8E8E8E",
"*. c #939393",
"=. c #F2C38D",
"-. c #ECC59D",
";. c #D6D1BE",
":. c #DCD1B8",
">. c #E2CDA8",
",. c #E3C9B1",
"<. c #F2DEBB",
"1. c #C4C2C5",
"2. c #CECFC8",
"3. c #CECECE",
"4. c #D5CEC7",
"5. c #D7CECC",
"6. c #D8CCC8",
"7. c #CED0CF",
"8. c #D0D0CE",
"9. c #CECED5",
"0. c #D4CED2",
"q. c #D0CFD8",
"w. c #CED1D0",
"e. c #D0D0D0",
"r. c #D2D2D2",
"t. c #DDDDDC",
"y. c #EEDECE",
"u. c #E9DDDD",
"i. c #F5DBD0",
"p. c #E7E5D2",
"a. c #E9E3D0",
"s. c #EBE5D2",
"d. c #E6E5DE",
"f. c #DFE2E1",
"g. c #DDE5EB",
"h. c #E3E3E3",
"j. c #E4E4E4",
"k. c #EAEAEA",
"l. c #F0EFED",
"z. c #F6F4E7",
"x. c #F5F6EE",
"c. c #FBF5EB",
"v. c #F8F5ED",
"b. c #F7F8E9",
"n. c #F1F8EF",
"m. c #EFEEF0",
"M. c #F6F5F6",
"N. c #F6F6F6",
"B. c #FAF6F6",
"V. c #F2F8F0",
"C. c #F8F7F8",
"Z. c white",
/* pixels */
"> > > > > > > > > > > > > > > > > > > > > > > > > > > > > > > > > > > > > > > > > > > > > > > > > > > > > > > > > > > > > > > > ",
"> 4 4 4 4 4 4 4 4 4 4 4 4 4 4 4 > 4 4 4 4 4 4 4 4 4 4 4 4 4 4 4 4 4 4 4 4 4 4 4 4 4 4 4 4 4 4 4 4 4 4 4 4 4 4 4 4 4 4 4 4 4 4 > ",
"> 4 4 4 4 4 4 4 4 4 4 4 4 4 4 4 > 4 4 4 4 4 4 4 4 4 4 4 4 4 4 4 4 4 4 4 4 4 4 4 4 4 4 4 4 4 4 4 4 4 4 4 4 4 4 4 4 4 4 4 4 4 4 > ",
"> 4 4 4 4 4 4 4 4 4 4 4 4 4 4 4 > 4 4 4 4 4 4 4 4 4 4 4 4 4 4 4 4 4 4 4 4 4 4 4 4 4 4 4 4 4 4 4 4 4 4 4 4 4 4 4 4 4 4 4 4 4 4 > ",
"> 4 4 4 4 4 4 4 4 4 4 4 4 4 4 4 > 4 4 4 4 4 4 4 4 4 4 4 4 4 4 4 4 4 4 4 4 4 4 4 4 4 4 4 4 4 4 4 4 4 4 4 4 4 4 4 4 4 4 4 4 4 4 > ",
"> 4 4 4 4 4 4 4 4 4 4 4 4 4 4 4 > 4 4 4 4 4 4 4 4 4 4 4 4 4 4 4 4 4 4 4 4 4 4 4 4 4 4 4 4 4 4 4 4 4 4 4 4 4 4 4 4 4 4 4 4 4 4 > ",
"> 4 4 4 4 4 4 4 4 4 4 4 4 4 4 4 > 4 4 4 4 4 4 4 4 4 4 4 4 4 4 4 4 4 4 4 4 4 4 4 4 4 4 4 4 4 4 4 4 4 4 4 4 4 4 4 4 4 4 4 4 4 4 > ",
"> 4 4 4 4 4 4 4 4 4 4 4 4 4 4 4 > 4 4 4 4 4 4 4 4 4 4 4 4 4 4 4 4 4 4 4 4 4 4 4 4 4 4 4 4 4 4 4 4 4 4 4 4 4 4 4 4 4 4 4 4 4 4 > ",
"> 4 4 4 4 4 4 4 4 4 4 4 4 4 4 4     4 4 4 4 4 4 4 4 4 4 4 4 4 4 4 4 4 4 4 4 4 4 4 4     4 4 4 4 4 4 4 4 4 4 4 4 4 4 4 4 4 4 4 > ",
"> 4 4 4 4 4 4 4 4 4 4 4 4 4 4 4     4 4 4 4 4 4 4 4 4 4 4 4 4 4 4 4 4 4 4 4 4 4 4 4     4 4 4 4 4 4 4 4 4 4 4 4 4 4 4 4 4 4 4 > ",
"> 4 4 4 4 4 4 4 4 4 4 4 4 4   . T ]     4 4 4 4 4 4 4 4 4 4 4 4 4 4 4 4 4 4 4 4     P K     4 4 4 4 4 4 4 4 4 4 4 4 4 4 4 4 4 > ",
"> 4 4 4 4 4 4 4 4 4 4 4 4 4   O K H X X 4 4 4 4 4 4 4 4 4 4 4 4 4 4 4 4 4 4 4 4     ^ / X   4 4 4 4 4 4 4 4 4 4 4 4 4 4 4 4 4 > ",
"> 4 4 4 4 4 4 4 4 4 4 4 4 4     x.x.L '     4 4 4 4                 4 4 4 4     J Q n.B.    4 4 4 4 4 4 4 4 4 4 4 4 4 4 4 4 4 > ",
"> 4 4 4 4 4 4 4 4 4 4 4 4 4     M.b.P H X X 4 4 4 4                 4 4 4 4   X K K M.M.    4 4 4 4 4 4 4 4 4 4 4 4 4 4 4 4 4 > ",
"> 4 4 4 4 4 4 4 4 4 4 4 4 4     j.p.M M ! ~         Y ~ ! ! E E Y W X       T E M M d.j.    4 4 4 4 4 4 4 4 4 4 4 4 4 4 4 4 4 > ",
"> 4 4 4 4 4 4 4 4 4 4 4 4 4     j.a.M M K ! X     X K K P K ^ E E K X       W _ M M h.j.    4 4 4 4 4 4 4 4 4 4 4 4 4 4 4 4 4 > ",
"> 4 4 4 4 4 4 4 4 4 4 4 4 4     j.g.w.6.M M K E K ^ M M M M M M M     E E E M M 0.w.f.j.    4 4 4 4 4 4 4 4 4 4 4 4 4 4 4 4 4 > ",
"> 4 4 4 4 4 4 4 4 4 4 4 4 4     j.j.w.6.C M P K P P M M M M M M     K L K ^ M M 8.e.h.j.    4 4 4 4 4 4 4 4 4 4 4 4 4 4 4 4 4 > ",
"> 4 4 4 4 4 4 4 4 4 4 4 4 4     3.3.  . M M M M M M M M M M M     M M M M M M M     e.e.    4 4 4 4 4 4 4 4 4 4 4 4 4 4 4 4 4 > ",
"> 4 4 4 4 4 4 4 4 4 4 4 4 4     e.2.  . M M M M N M M M M M     M M M M M M M M X X 3.e.    4 4 4 4 4 4 4 4 4 4 4 4 4 4 4 4 4 > ",
"> 4 4 4 4 4 4 4 4 4 4 4 4 4       . M V q e e e e e M M M     M M M e e e e e Z.V V X       4 4 4 4 4 4 4 4 4 4 4 4 4 4 4 4 4 > ",
"> 4 4 4 4 4 4 4 4 4 4 4 4 4     X . M M             M M     M M M M q q t t Z.Z.z M X       4 4 4 4 4 4 4 4 4 4 4 4 4 4 4 4 4 > ",
"> 4 4 4 4 4 4 4 4 4 4 4 4 4   O n V M                     M M M Z.Z.X X X X   M M N M M     4 4 4 4 4 4 4 4 4 4 4 4 4 4 4 4 4 > ",
"> 4 4 4 4 4 4 4 4 4 4 4 4 4   . C M M                 M M M M M Z.              Z.M M M X X 4 4 4 4 4 4 4 4 4 4 4 4 4 4 4 4 4 > ",
"> 4 4 4 4 4 4 4 4 4 4 4   O n n M M M                 M M M M Z.Z.    6 6 6     Z.Z.M M M V     4 4 4 4 4 4 4 4 4 4 4 4 4 4 4 > ",
"> 4 4 4 4 4 4 4 4 4 4 4   O M M M M M                 M M M M M M     6 6 6     x M M M M M     4 4 4 4 4 4 4 4 4 4 4 4 4 4 4 > ",
"> 4 4 4 4 4 4 4 4 4 4 4   O M M M M N                 M M M M M M               M M M M M M     4 4 4 4 4 4 4 4 4 4 4 4 4 4 4 > ",
"> 4 4 4 4 4 4 4 4 4 4 4   O M M M M M V             M M M N M M M M   X       Z.x M M M M N     4 4 4 4 4 4 4 4 4 4 4 4 4 4 4 > ",
"> 4 4 4 4 4 4 4 4 4   * d h 0 e M M               D c.z.. . . . v.x.D D Z.Z.Z.Z.M M M M q q A A     4 4 4 4 4 4 4 4 4 4 4 4 4 > ",
"> 4 4 4 4 4 4 4 4 4   & t w 0 e       v M M M M N b B.M.        M.M.M M N M Z.Z.M M M M t t i t     4 4 4 4 4 4 4 4 4 4 4 4 4 > ",
"> 4 4 4 4 4 4 4 4 4 4 4 O . O     e e t F F M m y.i.h.h.k.k.k.k.j.h.p.s.M M S F u e 0 0 O . O O 4 4 4 4                 4 4 4 > ",
"> 4 4 4 4 4 4 4 4 4 4 4       O q q e 0 M M M M h.h.h.h.j.j.h.h.h.Z.h.h.M M M M e q e q X       4 4 4 4                 4 4 4 > ",
"> > > > > > > > > > > > > > > > O O O + w y 4.,.9.7.h.            j.3.q.>.:.e q + O O + > > > > > >     Z.M.C.C.C.C.    > > > > ",
"> 4 4 4 4 4 4 4 4 4 4 4 4 4 4 4       X q e 5.8.8.3.h.+.+.h.h.h.+.j.e.e.8.w.i q X       4 4 4 4 > 4     M.M.M.M.M.M.    4 4 4 > ",
"> 4 4 4 4 4 4 4 4 4 4 4 4 4 4 4 4 4 4 4 = = $ $ $ $ e.e.+.e.e.+.+.e.$ $ $ # = * 4 4 4 4 4 4 4 4 $ $ k.j.k.h.j.j.e.e.    4 4 4 > ",
"> 4 4 4 4 4 4 4 4 4 4 4 4 4 4 4 4 4 4 4             3.+.e.e.e.e.e.+.            4 4 4 4 4 4 4 4     M.M.j.h.h.h.e.e.    4 4 4 > ",
"> 4 4 4 4 4 4 4 4 4 4 4 4 4 4 4 4 4 4 4      . .| k ; : ; ; ; ; ; ; o...O...    4 4 4 4 4 4 4 4     M.M.j.h.h.h.e.e.    4 4 4 > ",
"> 4 4 4 4 4 4 4 4 4 4 4 4 4 4 4 4 4 4 4     P K K L                 K K K K X   4 4 4 4 4 4 4 4     M.M.j.h.h.h.e.e.    4 4 4 > ",
"> 4 4 4 4 4 4 4 4 4 4 4 4 4 4 4 4 4 4 4     B B B B &.*.&.&.&.&.&.&.B B B B X   4 4 4 4 4 4 5 5 8 7 %.%.h.h.h.h.e.e.    4 4 4 > ",
"> 4 4 4 4 4 4 4 4 4 4 4 4 4 4 4 4 4 4 4     B V N N M.M.M.M.M.M.M.M.M B M M     4 4 4 4 4 4   X K L M b u.h.h.h.e.e.    4 4 4 > ",
"> 4 4 4 4 4 4 4 4 4 4 4 4 4 4 4 4 4 4 4 < < M N @.$.l.k.V.k.    V.m.#.#.M M , 1     4 4 4 4     K L M M =.=.t.t.e.e.    4 4 4 > ",
"> 4 4 4 4 4 4 4 4 4 4 4 4 4 4 4 4 4     q q N M M.M.h.h.h.h.  h.h.h.M.M.x C q q     4 4 4 4     G K M M M M ;.8.e.e.    4 4 4 > ",
"> 4 4 4 4 4 4 4 4 4 4 4 4 4 4 4 4 4     q q N M V.C.h.h.          j.C.M.x M q q     4 4 4 4 - @ P U M M M M -.-.1.1.% o 4 4 4 > ",
"> 4 4 4 4 4 4 4 4 4 4 4 4 4 4 4 4 4     q e N B j.j.h.h.h.h.h.h.  h.h.j.M M q q     4 4     ) T z M M M M M e q     4 4 4 4 4 > ",
"> 4 4 4 4 4 4 4 4 4 4 4 4 4 4 4 4 4   X e e X.{ <.<.h.h.h.h.h.h.h.j.<.<.} [ t q     4 4     E K M M M M M M w e     4 4 4 4 4 > ",
"> 4 4 4 4 4 4 4 4 4 4 4 4 4 4 4 4 4   . q q X X M C h.h.h.h.h.h.h.j.M B   X i q     4 4     G K M M M M M M q q .   4 4 4 4 4 > ",
"> 4 4 4 4 4 4 4 4 4 4 4 4 4 4 4 4 4   X q q X X M M h.h.h.h.h.h.h.h.M B   X i e     4 4     E K M M M M z C j j .   4 4 4 4 4 > ",
"> 4 4 4 4 4 4 4 4 4 4 4 4 4 4 4 4 4   X e q X X x M h.h.h.h.h.h.h.h.M B     q q X   4 4     E K M M M M e q     4 4 4 4 4 4 4 > ",
"> 4 4 4 4 4 4 4 4 4 4 4 4 4 4 4 4 4   O e e X   x V t.t.h.h.h.h.t.f.M B     q e X   4 4     ` ^ z v c C d s .   4 4 4 4 4 4 4 > ",
"> 4 4 4 4 4 4 4 4 4 4 4 4 4 4 4   . i q M M X   z C     h.h.h.h.    M B X X M B p t     _ ^ v M e q q q     4 4 4 4 4 4 4 4 4 > ",
"> 4 4 4 4 4 4 4 4 4 4 4 4 4 4 4   . q q M M   . M Z     h.h.h.h.    M B     x B t q     ( P M M g a a r     4 4 4 4 4 4 4 4 4 > ",
"> 4 4 4 4 4 4 4 4 4 4 4 4 4 4 4   . t t M M X X M Z     h.h.h.h.    M M     N M t t     0 q q a         4 4 4 4 4 4 4 4 4 4 4 > ",
"> 4 4 4 4 4 4 4 4 4 4 4 4 4 4 4   . t u M M   X l D     h.h.h.h.    c C   X N M t t     f r e 9         4 4 4 4 4 4 4 4 4 4 4 > ",
"> 4 4 4 4 4 4 4 4 4 4 4 4 4 4 4     q u M M     4 3     h.h.h.h.    4 4     x M t t       X     > 4 4 4 4 4 4 4 4 4 4 4 4 4 4 > ",
"> 4 4 4 4 4 4 4 4 4 4 4 4 4 4 4     q q M N     4 4     j.h.j.h.    4 4     N N e t             > 4 4 4 4 4 4 4 4 4 4 4 4 4 4 > ",
"> 4 4 4 4 4 4 4 4 4 4 4 4 4 4 4   . t q q u     2 2     e.e.e.e.    2 2     i t q q     4 4 4 4 > 4 4 4 4 4 4 4 4 4 4 4 4 4 4 > ",
"> 4 4 4 4 4 4 4 4 4 4 4 4 4 4 4   o q q e q     2 2     e.3.e.e.    2 2     t q q q     4 4 4 4 > 4 4 4 4 4 4 4 4 4 4 4 4 4 4 > ",
"> 4 4 4 4 4 4 4 4 4 4 4 4 4 4 4 4 4         X                                       4 4 4 4 4 4 > 4 4 4 4 4 4 4 4 4 4 4 4 4 4 > ",
"> 4 4 4 4 4 4 4 4 4 4 4 4 4 4 4 4 4                                                 4 4 4 4 4 4 > 4 4 4 4 4 4 4 4 4 4 4 4 4 4 > ",
"> 4 4 4 4 4 4 4 4 4 4 4 4 4 4 4 4 4 4 4 4 4 4 4 4 4 4 4 4 4 4 4 4 4 4 4 4 4 4 4 4 4 4 4 4 4 4 4 > 4 4 4 4 4 4 4 4 4 4 4 4 4 4 > ",
"> 4 4 4 4 4 4 4 4 4 4 4 4 4 4 4 4 4 4 4 4 4 4 4 4 4 4 4 4 4 4 4 4 4 4 4 4 4 4 4 4 4 4 4 4 4 4 4 > 4 4 4 4 4 4 4 4 4 4 4 4 4 4 > ",
"> 4 4 4 4 4 4 4 4 4 4 4 4 4 4 4 4 4 4 4 4 4 4 4 4 4 4 4 4 4 4 4 4 4 4 4 4 4 4 4 4 4 4 4 4 4 4 4 > 4 4 4 4 4 4 4 4 4 4 4 4 4 4 > ",
"> 4 4 4 4 4 4 4 4 4 4 4 4 4 4 4 4 4 4 4 4 4 4 4 4 4 4 4 4 4 4 4 4 4 4 4 4 4 4 4 4 4 4 4 4 4 4 4 > 4 4 4 4 4 4 4 4 4 4 4 4 4 4 > ",
"> 4 4 4 4 4 4 4 4 4 4 4 4 4 4 4 4 4 4 4 4 4 4 4 4 4 4 4 4 4 4 4 4 4 4 4 4 4 4 4 4 4 4 4 4 4 4 4 > 4 4 4 4 4 4 4 4 4 4 4 4 4 4 > ",
"> > > > > > > > > > > > > > > > > > > > > > > > > > > > > > > > > > > > > > > > > > > > > > > > > > > > > > > > > > > > > > > > "
};
