/* XPM */
static char *_54b8ab7f7b14d05e74f5bbbc14aac4bgmBRAIykDRPP2nRY[] = {
/* columns rows colors chars-per-pixel */
"64 64 123 2 ",
"   c #010101",
".  c #010600",
"X  c #000007",
"o  c #060606",
"O  c #080400",
"+  c #000800",
"@  c #0A0A00",
"#  c gray4",
"$  c #1B1A00",
"%  c #1F1C08",
"&  c #3C3A3A",
"*  c #676363",
"=  c #CD8D03",
"-  c #D1850A",
";  c #D28B0A",
":  c #D28D08",
">  c #D58A0E",
",  c #D8890D",
"<  c #D88E0F",
"1  c #DE960B",
"2  c #DC930F",
"3  c #DD980C",
"4  c #D68511",
"5  c #D48316",
"6  c #D58417",
"7  c #D98312",
"8  c #DB8117",
"9  c #D78218",
"0  c #D58518",
"q  c #D4811C",
"w  c #D8811A",
"e  c #DA851B",
"r  c #D9831C",
"t  c #DE9511",
"y  c #DB9217",
"u  c #DC9317",
"i  c #E2970C",
"p  c #E19A0F",
"a  c #E58F1B",
"s  c #E58F1C",
"d  c #E09013",
"f  c #E09117",
"g  c #DDB709",
"h  c #DBBB08",
"j  c #EDAD0A",
"k  c #F1AC0F",
"l  c #E3B904",
"z  c #E4B807",
"x  c #E2B508",
"c  c #E6B609",
"v  c #E7B50C",
"b  c #EAB309",
"n  c #ECB10D",
"m  c #E8B50C",
"M  c #E2BB0F",
"N  c #EBA717",
"B  c #EFAD10",
"V  c #EFAB14",
"C  c #EFAE15",
"Z  c #EBA61B",
"A  c #ECA61B",
"S  c #ECA71C",
"D  c #EFAB19",
"F  c #EFA81D",
"G  c #F0AC13",
"H  c #F2AF15",
"J  c #F1AE18",
"K  c #EBB210",
"L  c #EDB210",
"P  c #EFB116",
"I  c #F0B214",
"U  c #F0B018",
"Y  c #DD9423",
"T  c #EEA422",
"R  c #D2C60E",
"E  c #D3C80E",
"W  c #D6C513",
"Q  c #D7C415",
"!  c #DBC312",
"~  c #D8C513",
"^  c #D9C315",
"/  c #DBC417",
"(  c #D3C810",
")  c #D0C71C",
"_  c #DAC219",
"`  c #DBC41A",
"'  c #D3CA1F",
"]  c #EBE508",
"[  c #EDE508",
"{  c #EFE20E",
"}  c #F0E10F",
"|  c #EDE311",
" . c #EDE512",
".. c #E5EB1A",
"X. c #E3EE1F",
"o. c #E5ED1F",
"O. c #E8EA19",
"+. c #E8EB1C",
"@. c #E9EC1F",
"#. c #E7F01E",
"$. c #D7C723",
"%. c #D1C42E",
"&. c #EEE724",
"*. c #E2EA21",
"=. c #E7EB22",
"-. c #E3EE21",
";. c #E6ED21",
":. c #E7EC25",
">. c #EAEA23",
",. c #E8EC23",
"<. c #E9EB25",
"1. c #EEE924",
"2. c #E9ED24",
"3. c #ECEE28",
"4. c #F0E327",
"5. c #F2E727",
"6. c #F5E724",
"7. c #F0E922",
"8. c #F5E728",
"9. c #EEF326",
"0. c #E9F12D",
"q. c #E5EF36",
"w. c #E4EA46",
/* pixels */
"& & & & & & & & & & & & & & & & & & & & & & & & & & & & & & & & & & & & & & & & & & & & & & & & & & & & & & & & & & & & & & & & ",
"& * * * * * * * * * * * * * * * & * * * * * * * * * * * * * * * * * * * * * * * * * * * * * * * * * * * * * * * * * * * * * * & ",
"& * * * * * * * * * * * * * * * & * * * * * * * * * * * * * * * * * * * * * * * * * * * * * * * * * * * * * * * * * * * * * * & ",
"& * * * * * * * * * * * * * * * & * * * * * * * * * * * * * * * * * * * * * * * * * * * * * * * * * * * * * * * * * * * * * * & ",
"& * * * * * * * * * * * * * * * & * * * * * * * * * * * * * * * * * * * * * * * * * * * * * * * * * * * * * * * * * * * * * * & ",
"& * * * * * * * * * * * * * * * & * * * * * * * * * * * * * * * * * * * * * * * * * * * * * * * * * * * * * * * * * * * * * * & ",
"& * * * * * * * * * * * * * * * & * * * * * * * * * * * * * * * * * * * * * * * * * * * * * * * * * * * * * * * * * * * * * * & ",
"& * * * * * * * * * * * * * * * & * * * * * * * * * * * * * * * * * * * * * * * * * * * * * * * * * * * * * * * * * * * * * * & ",
"& * * * * * * * * * * * * * * * & * * * * * * * * * * * * * * * * * * * * * * * * * * * * * * * * * * * * * * * * * * * * * * & ",
"& * * * * * * * * * * * * * * * & * * * * * * * * * * * * * * * * * * * * * * * * * * * * * * * * * * * * * * * * * * * * * * & ",
"& * * * * * * * * * * * * * * * & * * * * * * * * * * * * * * * * * * * * * * * * * * * * * * * * * * * * * * * * * * * * * * & ",
"& * * * * * * * * * * * * * * * & * * * * * * * * * * * * * * * * * * * * * * * * * * * * * * * * * * * * * * * * * * * * * * & ",
"& * * * * * * * * * * * * * * * & * * * * * * * * * * * * * * * * * * * * * * * * * * * * * * * * * * * * * * * * * * * * * * & ",
"& * * * * * * * * * * * * * * * & * * * * * * * * * * * * * * * * * * * * * * * * * * * * * * * * * * * * * * * * * * * * * * & ",
"& * * * * * * * * * * * * * * * & * * * * * * * * * * * * * * * * * * * * * * * * * * * * * * * * * * * * * * * * * * * * * * & ",
"& * * * * * * * * * * * * * * * & * * * * * * * * * * * * * * * * * * * * * * * * * * * * * * * * * * * * * * * * * * * * * * & ",
"& * * * * * * * * * * * * * * * & * * * * * * * * * * * * * * * * * * * * * * * * * * * * * * * * * * * * * * * * * * * * * * & ",
"& * * * * * * * * * * * * * * * & * * * * * * * * * * * * * * * * * * * * * * * * * * * * * * * * * * * * * * * * * * * * * * & ",
"& * * * * * * * * * * * * * * * & * * * * * * * * * * * * * * * * * * * * * * * * * * * * * * * * * * * * * * * * * * * * * * & ",
"& * * * * * * * * * * * * * * * & * * * * * * * * * * * * * * * * * * * * * * * * * * * * * * * * * * * * * * * * * * * * * * & ",
"& * * * * * * * * * * * * * * * & * * * * * * * * * * * * * * * * * * * * * * * * * * * * * * * * * * * * * * * * * * * * * * & ",
"& * * * * * * * * * * * * * * * & * * * * * * * * * * * * * * * * * * * * * * * * * * * * * * * * * * * * * * * * * * * * * * & ",
"& * * * * * * * * * * * * * * * & * * * * * * * * * * * * * * * * * * * * * * * * * * * * * * * * * * * * * * * * * * * * * * & ",
"& * * * * * * * * * * * * * * * & * * * * * * * * * * * * * * * * * * * * * * * * * * * * * * * * * * * * * * * * * * * * * * & ",
"& * * * * * * * * * * * * * * * & * * * * * * * * * * * * * * * *           * * * * * * * * * * * * * * * * * * * * * * * * * & ",
"& * * * * * * * * * * * * * * * & * * * * * * * * * * * * * *   X / ` ` ` _ X     * * * * * * * * * * * * * * * * * * * * * * & ",
"& * * * * * * * * * * * * * * * & * * * * * * * * * * *     @ q.0.2.v K K  .' $.%.    * * * * * * * * * * * * * * * * * * * * & ",
"& * * * * * * * * * * * * * * * & * * * * * * * * * * * . . @ =.@.5.v n L { ( W ) O O * * * * * * * * * * * * * * * * * * * * & ",
"& * * * * * * * * * * * * * * * & * * * * * * * * *   X 2.,.,.=.:.L L L L L ;.,.<.Q ^       * * * * * * * * * * * * * * * * * & ",
"& * * * * * * * * * * * * * * * & * * * * * *   X   <.@.<.-.+.+.,.;.v K K >.,.;.<.<.@.>.R W   * * * * * * * * * * * * * * * * & ",
"& * * * * * * * * * * * * * * * & * * * *     @.,.2.X.L L &.5.B ,.,.,.,.,.,.,.x L L @.,.E ~ !   * * * * * * * * * * * * * * * & ",
"& * * * * * * * * * * * * * * * & * * # % w.w.9.,.&.g L L &.3.6.,.,.,.,.,.,.,.x L L @.,.,.1.!   * * * * * * * * * * * * * * * & ",
"& & & & & & & & & & & & & & & & & & & + $ ,.,.,.,.4.n n L 7.X.*...;.,.;.=.@.,.h L n X.,.,.>.!   & & & & & & & & & & & & & & & & ",
"& * * * * * * * * * * * * * * * * *   k M o.o.o.o.#.o.@.o.o.8.H m #.o.,.n 1.o.o.o.o.o.o.o.O.!   & * * * * * * * * * * * * * * & ",
"& * * * * * * * * * * * * * * * * *   G I L L L L L K n L L c [ L n n b | v L L n n L L L B f   & * * * * * * * * * * * * * * & ",
"& * * * * * * * * * * * * * * * * *   5 > L L L n D w 9 n L L U ] ] ] } G n L L C w n L L L y   & * * * * * * * * * * * * * * & ",
"& * * * * * * * * * * * * * * * * *   w 5 < L L : ; w 7 > L L n z z z l G L n = , w 4 L L L u   & * * * * * * * * * * * * * * & ",
"& * * * * * * * * * * * * * * * * *   w e 9 L L 0 r w w w C L L L L L L L L n - 8 w w n L L u   & * * * * * * * * * * * * * * & ",
"& * * * * * * * * * * * * * * * * *   w e 9 L L I V w 7 L L L L n L L H w L n - 8 w w n L L u   & * * * * * * * * * * * * * * & ",
"& * * * * * * * * * * * * * * * * *   8 > n L L L L L n L L U 8 7 L L L L L L L J w L L 1 d u   & * * * * * * * * * * * * * * & ",
"& * * * * * * * * * * * * * * * * *   k P L L q P L L L L 4 9 9 0 6 J L L L L L n n L L t f y   & * * * * * * * * * * * * * * & ",
"& * * * * * * * * * * * * * * * * *   B L L L F L L L L L A Z S N T L L L i 3 3 3 3 p 3 2 d u   & * * * * * * * * * * * * * * & ",
"& * * * * * * * * * * * * * * * * *   j H H H H H G H H H H H V H H H H H a s s s s s s s s Y   & * * * * * * * * * * * * * * & ",
"& * * * * * * * * * * * * * * * * * *   o                                                     * & * * * * * * * * * * * * * * & ",
"& * * * * * * * * * * * * * * * * * * * * * * * * * * * * * * * * * * * * * * * * * * * * * * * & * * * * * * * * * * * * * * & ",
"& * * * * * * * * * * * * * * * * * * * * * * * * * * * * * * * * * * * * * * * * * * * * * * * & * * * * * * * * * * * * * * & ",
"& * * * * * * * * * * * * * * * * * * * * * * * * * * * * * * * * * * * * * * * * * * * * * * * & * * * * * * * * * * * * * * & ",
"& * * * * * * * * * * * * * * * * * * * * * * * * * * * * * * * * * * * * * * * * * * * * * * * & * * * * * * * * * * * * * * & ",
"& * * * * * * * * * * * * * * * * * * * * * * * * * * * * * * * * * * * * * * * * * * * * * * * & * * * * * * * * * * * * * * & ",
"& * * * * * * * * * * * * * * * * * * * * * * * * * * * * * * * * * * * * * * * * * * * * * * * & * * * * * * * * * * * * * * & ",
"& * * * * * * * * * * * * * * * * * * * * * * * * * * * * * * * * * * * * * * * * * * * * * * * & * * * * * * * * * * * * * * & ",
"& * * * * * * * * * * * * * * * * * * * * * * * * * * * * * * * * * * * * * * * * * * * * * * * & * * * * * * * * * * * * * * & ",
"& * * * * * * * * * * * * * * * * * * * * * * * * * * * * * * * * * * * * * * * * * * * * * * * & * * * * * * * * * * * * * * & ",
"& * * * * * * * * * * * * * * * * * * * * * * * * * * * * *                         * * * * * * & * * * * * * * * * * * * * * & ",
"& * * * * * * * * * * * * * * * * * * * * * * * * * * *                             * * * * * * & * * * * * * * * * * * * * * & ",
"& * * * * * * * * * * * * * * * * * * * * * * * * * *                               * * * * * * & * * * * * * * * * * * * * * & ",
"& * * * * * * * * * * * * * * * * * * * * * * * * *                               * * * * * * * & * * * * * * * * * * * * * * & ",
"& * * * * * * * * * * * * * * * * * * * * * * *                               * * * * * * * * * & * * * * * * * * * * * * * * & ",
"& * * * * * * * * * * * * * * * * * * * * * *                               * * * * * * * * * * & * * * * * * * * * * * * * * & ",
"& * * * * * * * * * * * * * * * * * * * * * *                         * * * * * * * * * * * * * & * * * * * * * * * * * * * * & ",
"& * * * * * * * * * * * * * * * * * * * * * * * * * * * * * * * * * * * * * * * * * * * * * * * & * * * * * * * * * * * * * * & ",
"& * * * * * * * * * * * * * * * * * * * * * * * * * * * * * * * * * * * * * * * * * * * * * * * & * * * * * * * * * * * * * * & ",
"& * * * * * * * * * * * * * * * * * * * * * * * * * * * * * * * * * * * * * * * * * * * * * * * & * * * * * * * * * * * * * * & ",
"& & & & & & & & & & & & & & & & & & & & & & & & & & & & & & & & & & & & & & & & & & & & & & & & & & & & & & & & & & & & & & & & "
};
