/* XPM */
static char *_7a02bb0a1654763c606c854e47170beUvL58VdFOYhTk5kt[] = {
/* columns rows colors chars-per-pixel */
"64 64 11 1 ",
"  c None",
". c black",
"X c #2C2B2B",
"o c #3D3939",
"O c #3C3A3A",
"+ c #676363",
"@ c #756F6F",
"# c #CF203B",
"$ c #848282",
"% c #DACFCF",
"& c #FEFEFE",
/* pixels */
"OOOOOOOOOOOOOOOOOOOOOOOOOOOOOOOOOOOOOOOOOOOOOOOOOOOOOOOOOOOOOOOO",
"O++++++++++++++++++++++++++++++++++++++++++++++O+++++++++++++++O",
"O++++++++++++++++++++++++++++++++++++++++++++++O+++++++++++++++O",
"O++++++++++++++++++++++++++++++++++++++++++++++O+++++++++++++++O",
"O++++++++++++++++++++++++++++++++++++++++++++++O+++++++++++++++O",
"O++++++++++++++++++++++++++++++++++++++++++++++O+++++++++++++++O",
"O++++++++++++++++++++++++++++++++++++++++++++++O+++++++++++++++O",
"O++++++++++++++++++++++++++++++++++++++++++++++O+++++++++++++++O",
"O++++++++++++++++++++++++++++++++++++++++++++++O+++++++++++++++O",
"O++++++++++++++++++++++++++++++++++++++++++++++O+++++++++++++++O",
"O++++++++++++++++++++++++++++++++++++++++++++++O+++++++++++++++O",
"O++++++++++++++++++++++++++++++++++++++++++++++O+++++++++++++++O",
"O++++++++++++++++++++++++++++++++++++++++++++++O+++++++++++++++O",
"O+++++++++++++++++...++++++++++++++++++++++++++O+++++++++++++++O",
"O+++++++++++++++...OO.+++++++++++++++++++++++++O+++++++++++++++O",
"O+++++++++++++...OOOOO..+++++++++++++++++++++++O+++++++++++++++O",
"O++++++++++++..OOOOOOOO.+++++++++++++++++++++++O+++++++++++++++O",
"O+++++++++++..OOOOOOOOOO.++++++++++++++++++++++O+++++++++++++++O",
"O++++++++++..OO&&OOO...O.+++++....+++++++++++++O+++++++++++++++O",
"O++++++++++.OOO&&OOO...O.+++++.XX.+++++++++++++O+++++++++++++++O",
"O++++++++++.OOOOOOOO....O.....X%X.+++++++++++++O+++++++++++++++O",
"O+++++++++.@OOOOOOOOOO...OOO.XXX..+++++++++++++O+++++++++++++++O",
"O+++++++++.@@OOOOO@@OOO...O.XXX..++++++++++++++O+++++++++++++++O",
"O+++++++++.@@@OOO@@@@OOO....#..O........+++++++O+++++++++++++++O",
"O++++++++++...OO@@@@@@OOO...##.OOOOOOOOO..+++++O+++++++++++++++O",
"O++++++++++++..O@@@@@@@O...#%##.OOOOOOOOOO...++O+++++++++++++++O",
"O++++++++++++++..@@@@@O.X##%%###.OOOOOOOOOOOO..O+++++++++++++++O",
"O+++++++++++++++.@@@@@.XXX###%###.OOOOOOOOOOOOO..++++++++++++++O",
"O+++++++++++++++..@@@.XXX..###%###.OOOOOOOOOOOOO..+++++++++++++O",
"O++++++++++++++++.@O.X%X.OO.###%###.OOOOOOOOOOOOOO.++++++++++++O",
"O++++++++++++++++.OO.XX.OOOO.###%###.OOOOOOOOOOOOOO..++++++++++O",
"O++++++++++++++++.OO...OOOOOO.###%###.OOOOOOOOOOOOOO.++++++++++O",
"OOOOOOOOOOOOOOOOO.OOOOOOOOOOOO.###%###.OOOOOOOOOOOOOO..OOOOOOOOO",
"O++++++++++++++O+.OOOO.OOOOOOOO.###%###.OOOOOOOOOOOOOOO.+++++++O",
"O++++++++++++++O+.OOOO..OOOOOOOO.###%%##.OOOOOOOOOOOOOOO.++++++O",
"O++++++++++++++O+.OOOOO..OOOOOOOO.##%%###.OOOOOOOOOOOOOO.++++++O",
"O++++++++++++++O+..OOOOOO.OOOOOOOO.###%%##.OOOOOOOOOOOOO.++++++O",
"O++++++++++++++O++.OOO$$$$.....OOOO.##%%###.OOOOOOO.OOOOO.+++++O",
"O++++++++++++++O+++.$$$$$$$$$$...OOO.###%%#.OOOOOOO..OOOO.+++++O",
"O++++++++++++++O+++..$$$$$$$$$$$..OOO.##%%#.OOOOOOOOO..OO.+++++O",
"O++++++++++++++O++++.$$@$@$@$@$@.+.OOO.####.OOOOOOOOO.+...+++++O",
"O++++++++++++++O++++..@@@@@@@@@@.+. OOO.....OOOOOOOOO.+++++++++O",
"O++++++++++++++O++++++..@@@@@@@.+++..OOOOOOOO..OOOOOOO.++++++++O",
"O++++++++++++++O++++++....@@@@@.++++..OOOOOOO..OOO.....++++++++O",
"O++++++++++++++O++++++.++....@..++++++.OOOOOO.+...+++..++++++++O",
"O++++++++++++++O++++++.+++.+...+++++++..OOOO.++++++++++++++++++O",
"O++++++++++++++O+++++..+++.+++++++++++++..OO.++++++++++++++++++O",
"O++++++++++++++O+++++.++++.+++++++++++++++...++++++++++++++++++O",
"O++++++++++++++O+++++.++++.++++++++++++++++++++++++++++++++++++O",
"O++++++++++++++O+++++.++++.++++++++++++++++++++++++++++++++++++O",
"O++++++++++++++O++++..+++..++++++++++++++++++++++++++++++++++++O",
"O++++++++++++++O+++++++++++++++++++++++++++++++++++++++++++++++O",
"O++++++++++++++O+++++++++++++++++++++++++++++++++++++++++++++++O",
"O++++++++++++++O+++++++++++++++++++++++++++++++++++++++++++++++O",
"O++++++++++++++O+++++++++++++++++++++++++++++++++++++++++++++++O",
"O++++++++++++++O+++++++++++++++++++++++++++++++++++++++++++++++O",
"O++++++++++++++O+++++++++++++++++++++++++++++++++++++++++++++++O",
"O++++++++++++++O+++++++++++++++++++++++++++++++++++++++++++++++O",
"O++++++++++++++O+++++++++++++++++++++++++++++++++++++++++++++++O",
"O++++++++++++++O+++++++++++++++++++++++++++++++++++++++++++++++O",
"O++++++++++++++O+++++++++++++++++++++++++++++++++++++++++++++++O",
"O++++++++++++++O+++++++++++++++++++++++++++++++++++++++++++++++O",
"O++++++++++++++O+++++++++++++++++++++++++++++++++++++++++++++++O",
"OOOOOOOOOOOOOOOOOOOOOOOOOOOOOOOOOOOOOOOOOOOOOOOOOOOOOOOOOOOOOOOO"
};
