/* XPM */
static char *result[] = {
/* columns rows colors chars-per-pixel */
"64 64 5 1 ",
"  c black",
". c #565353",
"X c #160041",
"o c #8D8282",
"O c #F4F4F4",
/* pixels */
" ............... XXXXXXXXXXXXXXXXXXXXXXXXXXXXXXXXXXXXXXXXXXXXXXX",
" ooooooooooooooo XXXXXXXXXXXXXXXXXXXXXXXXXXXXXXXXXXXXXXXXXXXXXXX",
" ooooooooooooooo XXXXXXXXXXXXXXXXXXXXXXXXXXXXXXXXXXXXXXXXXXXXXXX",
" ooooooooooooooo XXXXXXXXXXXXXXXXXXXXXXXXXXXXXXXXXXXXXXXXXXXXXXX",
" ooooooooooooooo XXXXXXXXXXXXXXXXXXXXXXXXXXXXXXXXXXXXXXXXXXXXXXX",
" ooooooooooooooo XXXXXXXXXXXXXXXXXXXXXXXXXXXXXXXXXXXXXXXXXXXXXXX",
" ooooooooooooooo XXXXXXXXXXXXXXXXXXXXXXXXXXXXXXXXXXXXXXXXXXXXXXX",
" ooooooooooooooo XXXXXXXXXXXXXXXXXXXXXXXXXXXXXXXXXXXXXXXXXXXXXXX",
" ooooooooooooooo XXXXXXXXXXXXXXXXXXXXXXXXXXXXXXXXXXXXXXXXXXXXXXX",
" ooooooooooooooo XXXXXXXXXXXXXOOXXXXXXXXXXXXXXXXXXXXXXXXXXXXXXXX",
" ooooooooooooooo XXXXXXXXXXXXOXXOXXXXXXXXXXXXXXXXXXXXXXXXXXXXXXX",
" ooooooooooooooo XXXXXXXXXXXXOXXOXXXXXXXXXXXXXXXXXXXXXXXXXXXXXXX",
" ooooooooooooooo XXXXXXXXXXXXXOOXXXXXXXXXXXXXXXXXXXXXXXXXXXXXXXX",
" ooooooooooooooo XXXXXXXXXXXXXXXXXXXXXXXXXXXXXXXXXXXXXXXXXXXXXXX",
" ooooooooooooooo XXXXXXXXXXXXXXXXXXXXXXXXXXXXXXXXXXXXXXXXXXXXXXX",
" ............... XXXXXXXXXXXXXXXXXXXXXXXXXXXXXXXXXXXXXXXXXXXXXXX",
" ooooooooooooooo XXXXXXXXXXXXXXXXXXXXXXXXXXXXXXXXXXXXXXXXXXXXXXX",
" ooooooooooooooo XXXXXXXXXXXXXXXXXXXXXXXXXXXXXXXXXXXXXXXXXXXXXXX",
" ooooooooooooooo XXXXXXXXXXXXXXXXXXXXXXXXXXXXXXXXXXXXXXXXXXXXXXX",
" ooooooooooooooo XXXXXXXXXXXXXXXXXXXXXXXXXXXXXXXXXXXXXXXXXXXXXXX",
" ooooooooooooooo XXXXXXXXXXXXXXXXXXXXXXXXXXXXXXXXXXXXXXXXXXXXXXX",
" ooooooooooooooo XXXXXXXXXXXXXXXXXXXXXXXXXXXXXXXXXXXXXXXXXXXXXXX",
" ooooooooooooooo XXXXXXXXXXXXXXXXXXXXXXXXXXXXXXXXXXXXXXXXXXXXXXX",
" ooooooooooooooo XXXXXXXXXXXXXXXXXXXXXXXXXXXXXXXXXXXXXXXXXXXXXXX",
" ooooooooooooooo XXXXXXXXXXXXXXXXXXXXXXXXXXXXXXXXXXXXXXXXXXXXXXX",
" ooooooooooooooo XXXXXXXXXXXXXXXXXXXXXXXXXXXXXXXXXXXXXXXXXXXXXXX",
" ooooooooooooooo XXXXXXXXXXXXXXXXXXXXXXXXXXXXXXXXXXXXXXXXXXXXXXX",
" ooooooooooooooo XXXXXXXXXXXXXXXXXXXXXXXXXXXXXXXXXXXXXXXXXXXXXXX",
" ooooooooooooooo XXXXXXXXXXXXXXXXXXXXXXXXXXXXXXXXXOOXXXXXXXXXXXX",
" ooooooooooooooo XXXXXXXXXXXXXXXXXXXXXXXXXXXXXXXXOXXOXXXXXXXXXXX",
" ooooooooooooooo XXXXXXXXXXXXXXXXXXXXXXXXXXXXXXXXOXXOXXXXXXXXXXX",
" ............... XXXXXXXXXXXXXXXXXXXXXXXXXXXXXXXXXOOXXXXXXXXXXXX",
" ooooooooooooooo XXXXXXXXXXXXXXXXXXXXXXXXXXXXXXXXXXXXXXXXXXXXXXX",
" ooooooooooooooo XXXXXXXXXXXXXXXXXXXXXXXXXXXXXXXXXXXXXXXXXXXXXXX",
" ooooooooooooooo XXXXXXXXXXXXXXXXXXXXXXXXXXXXXXXXXXXXXXXXXXXXXXX",
" ooooooooooooooo XXXXXXXXXXXXXXXXXXXXXXXXXXXXXXXXXXXXXXXXXXXXXXX",
" ooooooooooooooo XXXXXXXXXXXXXXXXXXXXXXXXXXXXXXXXXXXXXXXXXXXXXXX",
" ooooooooooooooo XXXXXXXXXXXXXXXXXXXXXXXXXXXXXXXXXXXXXXXXXXXXXXX",
" ooooooooooooooo XXXXXXXXXXXXXXXXXXXXXXXXXXXXXXXXXXXXXXXXXXXXXXX",
" ooooooooooooooo XXXXXXXXXXXXXXXXXXXXXXXXXXXXXXXXXXXXXXXXXXXXXXX",
" ooooooooooooooo XXXXXXXXXXXXXXXXXXXXXXXXXXXXXXXXXXXXXXXXXXXXXXX",
" ooooooooooooooo XXXXXXXXXXXXXXXXXXXXXXXXXXXXXXXXXXXXXXXXXXXXXXX",
" ooooooooooooooo XXXXXXXXXXXXXXXXXXXXXXXXXXXXXXXXXXXXXXXXXXXXXXX",
" ooooooooooooooo XXXXXXXXXXXXXXXXXXXXXXXXXXXXXXXXXXXXXXXXXXXXXXX",
" ooooooooooooooo XXXXXXXXXXOOXXXXXXXXXXXXXXXXXXXXXXXXXXXXXXXXXXX",
" ooooooooooooooo XXXXXXXXXOXXOXXXXXXXXXXXXXXXXXXXXXXXXXXXXXXXXXX",
" ooooooooooooooo XXXXXXXXXOXXOXXXXXXXXXXXXXXXXXXXXXXXXXXXXXXXXXX",
" ............... XXXXXXXXXXOOXXXXXXXXXXXXXXXXXXXXXXXXXXXXXXXXXXX",
" ooooooooooooooo XXXXXXXXXXXXXXXXXXXXXXXXXXXXXXXXXXXXXXXXXXXXXXX",
" ooooooooooooooo XXXXXXXXXXXXXXXXXXXXXXXXXXXXXXXXXXXXXXXXXXXXXXX",
" ooooooooooooooo XXXXXXXXXXXXXXXXXXXXXXXXXXXXXXXXXXXXXXXXXXXXXXX",
" ooooooooooooooo XXXXXXXXXXXXXXXXXXXXXXXXXXXXXXXXXXXXXXXXXXXXXXX",
" ooooooooooooooo XXXXXXXXXXXXXXXXXXXXXXXXXXXXXXXXXXXXXXXXXXXXXXX",
" ooooooooooooooo XXXXXXXXXXXXXXXXXXXXXXXXXXXXXXXXXXXXXXXXXXXXXXX",
" ooooooooooooooo XXXXXXXXXXXXXXXXXXXXXXXXXXXXXXXXXXXXXXXXXXXXXXX",
" ooooooooooooooo XXXXXXXXXXXXXXXXXXXXXXXXXXXXXXXXXXXXXXXXXXXXXXX",
" ooooooooooooooo XXXXXXXXXXXXXXXXXXXXXXXXXXXXXXXXXXXXXXXXXXXXXXX",
" ooooooooooooooo XXXXXXXXXXXXXXXXXXXXXXXXXXXXXXXXXXXXXXXXXXXXXXX",
" ooooooooooooooo XXXXXXXXXXXXXXXXXXXXXXXXXXXXXXXXXXXXXXXXXXXXXXX",
" ooooooooooooooo XXXXXXXXXXXXXXXXXXXXXXXXXXXXXXXXXXXXXXXXXXXXXXX",
" ooooooooooooooo XXXXXXXXXXXXXXXXXXXXXXXXXXXXXXXXXXXXXXXXXXXXXXX",
" ooooooooooooooo XXXXXXXXXXXXXXXXXXXXXXXXXXXXXXXXXXXXXXXXXXXXXXX",
" ooooooooooooooo XXXXXXXXXXXXXXXXXXXXXXXXXXXXXXXXXXXXXXXXXXXXXXX",
" ............... XXXXXXXXXXXXXXXXXXXXXXXXXXXXXXXXXXXXXXXXXXXXXXX"
};
