/* XPM */
static char *result[] = {
/* columns rows colors chars-per-pixel */
"64 64 5 1 ",
"  c black",
". c #565353",
"X c #5A803B",
"o c #8D8282",
"O c #F4F4F4",
/* pixels */
"XXXXXXXXXXXXXXXXXXXXXXXXXXXXXXXXXXXXXXXXXXXXXXX ............... ",
"XXXXXXXXXXXXXXXXXXXXXXXXXXXXXXXXXXXXXXXXXXXXXXX ooooooooooooooo ",
"XXXXXXXXXXXXXXXXXXXXXXXXXXXXXXXXXXXXXXXXXXXXXXX ooooooooooooooo ",
"XXXXXXXXXXXXXXXXXXXXXXXXXXXXXXXXXXXXXXXXXXXXXXX ooooooooooooooo ",
"XXXXXXXXXXXXXXXXXXXXXXXXXXXXXXXXXXXXXXXXXXXXXXX ooooooooooooooo ",
"XXXXXXXXXXXXXXXXXXXXXXXXXXXXXXXXXXXXXXXXXXXXXXX ooooooooooooooo ",
"XXXXXXXXXXXXXXXXXXXXXXXXXXXXXXXXXXXXXXXXXXXXXXX ooooooooooooooo ",
"XXXXXXXXXXXXXXXXXXXXXXXXXXXXXXXXXXXXXXXXXXXXXXX ooooooooooooooo ",
"XXXXXXXXXXXXXXXXXXXXXXXXXXXXXXXXXXXXXXXXXXXXXXX ooooooooooooooo ",
"XXXXXXXXXXXXXXXXXXXXXXXXXXXXXXXXXXXXXXXXXXXXXXX ooooooooooooooo ",
"XXXXXXXXXXXXXXXXXXXXXXXXXXXXXXXXXXXXXXXXXXXXXXX ooooooooooooooo ",
"XXXXXXXXXXXXXXXXXXXXXXXXXXXXXXXXXXXXXXXXXXXXXXX ooooooooooooooo ",
"XXXXXXXXXXXXXXXXXXXXXXXXXXXXXXXXXXXXXXXXXXXXXXX ooooooooooooooo ",
"XXXXXXXXXXXXXXXXXXXXXXXXXXXXXXXXXXXXXXXXXXXXXXX ooooooooooooooo ",
"XXXXXXXXXXXXXXXXXXXXXXXXXXXXXXXXXXXXXXXXXXXXXXX ooooooooooooooo ",
"XXXXXXXXXXXXXXXXXXXXXXXXXXXXXXXXXXXXXXXXXXXXXXX ooooooooooooooo ",
"XXXXXXXXXXXXXXXXXXXXXXXXXXXXXXXXXXXOOXXXXXXXXXX ............... ",
"XXXXXXXXXXXXXXXXXXXXXXXXXXXXXXXXXXOXXOXXXXXXXXX ooooooooooooooo ",
"XXXXXXXXXXXXXXXXXXXXXXXXXXXXXXXXXXOXXOXXXXXXXXX ooooooooooooooo ",
"XXXXXXXXXXXXXXXXXXXXXXXXXXXXXXXXXXXOOXXXXXXXXXX ooooooooooooooo ",
"XXXXXXXXXXXXXXXXXXXXXXXXXXXXXXXXXXXXXXXXXXXXXXX ooooooooooooooo ",
"XXXXXXXXXXXXXXXXXXXXXXXXXXXXXXXXXXXXXXXXXXXXXXX ooooooooooooooo ",
"XXXXXXXXXXXXXXXXXXXXXXXXXXXXXXXXXXXXXXXXXXXXXXX ooooooooooooooo ",
"XXXXXXXXXXXXXXXXXXXXXXXXXXXXXXXXXXXXXXXXXXXXXXX ooooooooooooooo ",
"XXXXXXXXXXXXXXXXXXXXXXXXXXXXXXXXXXXXXXXXXXXXXXX ooooooooooooooo ",
"XXXXXXXXXXXXXXXXXXXXXXXXXXXXXXXXXXXXXXXXXXXXXXX ooooooooooooooo ",
"XXXXXXXXXXXXXXXXXXXXXXXXXXXXXXXXXXXXXXXXXXXXXXX ooooooooooooooo ",
"XXXXXXXXXXXXXXXXXXXXXXXXXXXXXXXXXXXXXXXXXXXXXXX ooooooooooooooo ",
"XXXXXXXXXXXXXXXXXXXXXXXXXXXXXXXXXXXXXXXXXXXXXXX ooooooooooooooo ",
"XXXXXXXXXXXXXXXXXXXXXXXXXXXXXXXXXXXXXXXXXXXXXXX ooooooooooooooo ",
"XXXXXXXXXXXXXXXXXXXXXXXXXXXXXXXXXXXXXXXXXXXXXXX ooooooooooooooo ",
"XXXXXXXXXXXXXXXXXXXXXXXXXXXXXXXXXXXXXXXXXXXXXXX ooooooooooooooo ",
"XXXXXXXXXXXXOOXXXXXXXXXXXXXXXXXXXXXXXXXXXXXXXXX ............... ",
"XXXXXXXXXXXOXXOXXXXXXXXXXXXXXXXXXXXXXXXXXXXXXXX ooooooooooooooo ",
"XXXXXXXXXXXOXXOXXXXXXXXXXXXXXXXXXXXXXXXXXXXXXXX ooooooooooooooo ",
"XXXXXXXXXXXXOOXXXXXXXXXXXXXXXXXXXXXXXXXXXXXXXXX ooooooooooooooo ",
"XXXXXXXXXXXXXXXXXXXXXXXXXXXXXXXXXXXXXXXXXXXXXXX ooooooooooooooo ",
"XXXXXXXXXXXXXXXXXXXXXXXXXXXXXXXXXXXXXXXXXXXXXXX ooooooooooooooo ",
"XXXXXXXXXXXXXXXXXXXXXXXXXXXXXXXXXXXXXXXXXXXXXXX ooooooooooooooo ",
"XXXXXXXXXXXXXXXXXXXXXXXXXXXXXXXXXXXXXXXXXXXXXXX ooooooooooooooo ",
"XXXXXXXXXXXXXXXXXXXXXXXXXXXXXXXXXXXXXXXXXXXXXXX ooooooooooooooo ",
"XXXXXXXXXXXXXXXXXXXXXXXXXXXXXXXXXXXXXXXXXXXXXXX ooooooooooooooo ",
"XXXXXXXXXXXXXXXXXXXXXXXXXXXXXXXXXXXXXXXXXXXXXXX ooooooooooooooo ",
"XXXXXXXXXXXXXXXXXXXXXXXXXXXXXXXXXXXXXXXXXXXXXXX ooooooooooooooo ",
"XXXXXXXXXXXXXXXXXXXXXXXXXXXXXXXXXXXXXXXXXXXXXXX ooooooooooooooo ",
"XXXXXXXXXXXXXXXXXXXXXXXXXXXXXXXXXXXXXXXXXXXXXXX ooooooooooooooo ",
"XXXXXXXXXXXXXXXXXXXXXXXXXXXXXXXXXXXXXXXXXXXXXXX ooooooooooooooo ",
"XXXXXXXXXXXXXXXXXXXXXXXXXXXXXXXXXXXXXXXXXXXXXXX ooooooooooooooo ",
"XXXXXXXXXXXXXXXXXXXXXXXXXXXXXXXXXXXXXXXXXXXXXXX ............... ",
"XXXXXXXXXXXXXXXXXXXXXXXXXXXXXXXXXXXXXXXXXXXXXXX ooooooooooooooo ",
"XXXXXXXXXXXXXXXXXXXXXXXXXXXXXXXXXXXXXXXXXXXXXXX ooooooooooooooo ",
"XXXXXXXXXXXXXXXXXXXXXXXXXXXXXXXXOOXXXXXXXXXXXXX ooooooooooooooo ",
"XXXXXXXXXXXXXXXXXXXXXXXXXXXXXXXOXXOXXXXXXXXXXXX ooooooooooooooo ",
"XXXXXXXXXXXXXXXXXXXXXXXXXXXXXXXOXXOXXXXXXXXXXXX ooooooooooooooo ",
"XXXXXXXXXXXXXXXXXXXXXXXXXXXXXXXXOOXXXXXXXXXXXXX ooooooooooooooo ",
"XXXXXXXXXXXXXXXXXXXXXXXXXXXXXXXXXXXXXXXXXXXXXXX ooooooooooooooo ",
"XXXXXXXXXXXXXXXXXXXXXXXXXXXXXXXXXXXXXXXXXXXXXXX ooooooooooooooo ",
"XXXXXXXXXXXXXXXXXXXXXXXXXXXXXXXXXXXXXXXXXXXXXXX ooooooooooooooo ",
"XXXXXXXXXXXXXXXXXXXXXXXXXXXXXXXXXXXXXXXXXXXXXXX ooooooooooooooo ",
"XXXXXXXXXXXXXXXXXXXXXXXXXXXXXXXXXXXXXXXXXXXXXXX ooooooooooooooo ",
"XXXXXXXXXXXXXXXXXXXXXXXXXXXXXXXXXXXXXXXXXXXXXXX ooooooooooooooo ",
"XXXXXXXXXXXXXXXXXXXXXXXXXXXXXXXXXXXXXXXXXXXXXXX ooooooooooooooo ",
"XXXXXXXXXXXXXXXXXXXXXXXXXXXXXXXXXXXXXXXXXXXXXXX ooooooooooooooo ",
"XXXXXXXXXXXXXXXXXXXXXXXXXXXXXXXXXXXXXXXXXXXXXXX ............... "
};
