/* XPM */
static char *_de17c37d6f3403bc160161eb8c1bb23VXwca2Zi9oZfCizg[] = {
/* columns rows colors chars-per-pixel */
"64 64 5 1 ",
"  c black",
". c #160041",
"X c #565353",
"o c #8D8282",
"O c gray96",
/* pixels */
"................................................................",
"................................................................",
"................................................................",
"................................................................",
"................................................................",
"................................................................",
"................................................................",
"................................................................",
"...................O............................................",
"..................OOO...........................................",
"...................O............................................",
"................................................................",
"................................................................",
"................................................................",
"..................................................O.............",
".................................................OOO............",
"..................................................O.............",
"................................................................",
"................................................................",
"................................................................",
"................................................................",
"................................................................",
"................................................................",
"................................................................",
"................................................................",
"................................................................",
".......O........................................................",
"......OOO.......................................................",
".......O........................................................",
"................................................................",
"................................................................",
"................................................................",
"................................................................",
"................................................................",
"................................................................",
"...................................O............................",
"..................................OOO...........................",
"...................................O............................",
"................................................................",
"................................................................",
"................................................................",
"................................................................",
"................................................................",
"................................................................",
"................................................................",
"................................................................",
"................................................................",
"                                                                ",
"XooooooooooooooXoooooooooooooooXoooooooooooooooXoooooooooooooooX",
"XooooooooooooooXoooooooooooooooXoooooooooooooooXoooooooooooooooX",
"XooooooooooooooXoooooooooooooooXoooooooooooooooXoooooooooooooooX",
"XooooooooooooooXoooooooooooooooXoooooooooooooooXoooooooooooooooX",
"XooooooooooooooXoooooooooooooooXoooooooooooooooXoooooooooooooooX",
"XooooooooooooooXoooooooooooooooXoooooooooooooooXoooooooooooooooX",
"XooooooooooooooXoooooooooooooooXoooooooooooooooXoooooooooooooooX",
"XooooooooooooooXoooooooooooooooXoooooooooooooooXoooooooooooooooX",
"XooooooooooooooXoooooooooooooooXoooooooooooooooXoooooooooooooooX",
"XooooooooooooooXoooooooooooooooXoooooooooooooooXoooooooooooooooX",
"XooooooooooooooXoooooooooooooooXoooooooooooooooXoooooooooooooooX",
"XooooooooooooooXoooooooooooooooXoooooooooooooooXoooooooooooooooX",
"XooooooooooooooXoooooooooooooooXoooooooooooooooXoooooooooooooooX",
"XooooooooooooooXoooooooooooooooXoooooooooooooooXoooooooooooooooX",
"XooooooooooooooXoooooooooooooooXoooooooooooooooXoooooooooooooooX",
"                                                                "
};
