/* XPM */
static char *_406e1a1f38c4a30886d112f55782c002kjrWBrskVvcLdA3[] = {
/* columns rows colors chars-per-pixel */
"64 64 9 1 ",
"  c black",
". c #0E0E0E",
"X c #2C2B2B",
"o c #3D3939",
"O c #676363",
"+ c #756F6F",
"@ c #CF203B",
"# c #848282",
"$ c #D9CCCC",
/* pixels */
"                                                                ",
" OOOOOOOOOOOOOOO OOOOOOOOOOOOOOOOOOOOOOOOOOOOOOOOOOOOOOOOOOOOOO ",
" OOOOOOOOOOOOOOO OOOOOOOOOOOOOOOOOOOOOOOOOOOOOOOOOOOOOOOOOOOOOO ",
" OOOOOOOOOOOOOOO OOOOOOOOOOOOOOOOOOOOOOOOOOOOOOOOOOOOOOOOOOOOOO ",
" OOOOOOOOOOOOOOO OOOOOOOOOOOOOOOOOOOOOOOOOOOOOOOOOOOOOOOOOOOOOO ",
" OOOOOOOOOOOOOOO OOOOOOOOOOOOOOOOOOOOOOOOOOOOOOOOOOOOOOOOOOOOOO ",
" OOOOOOOOOOOOOOO OOOOOOOOOOOOOOOOOOOOOOOOOOOOOOOOOOOOOOOOOOOOOO ",
" OOOOOOOOOOOOOOO OOOOOOOOOOOOOOOOOOOOOOOOOOOOOOOOOOOOOOOOOOOOOO ",
" OOOOOOOOOOOOOOO OOOOOOOOOOOOOOOOOOOOOOOOOOOOOOOOOOOOOOOOOOOOOO ",
" OOOOOOOOOOOOOOO OOOOOOOOOOOOOOOOOOOOOOOOOOOOOOOOOOOOOOOOOOOOOO ",
" OOOOOOOOOOOOOOO OOOOOOOOOOOOOOOOOOOOOOOOOOOOOOOOOOOOOOOOOOOOOO ",
" OOOOOOOOOOOOOOO OOOOOOOOOOOOO OOOOOOOOOOOOOOOOOOOOOOOOOOOOOOOO ",
" OOOOOOOOOOOOOOO OOOOOOOOOOOO o OOOOOOOOOOOOOOOOOOOOOOOOOOOOOOO ",
" OOOOOOOOOOOOOOO OOOOOOOOOOO ooo OOOOOOOOOOOOOOOOOOOOOOOOOOOOOO ",
" OOOOOOOOOOOOOOO OOOOOOOOOO ooooo OOOOOOOOOOOOOOOOOOOOOOOOOOOOO ",
" OOOOOOOOOOOOOOO OOOOOOOOO ooooooo OOOOOOOOOOOOOOOOOOOOOOOOOOOO ",
" OOOOOOOOOOOOOOO OOOOOOOO ooooooooo OOOOOOOOOOOOOOOOOOOOOOOOOOO ",
" OOOOOOOOOOOOOOO OOOOOOOO ooooooooo OOOOOOOOOOOOOOOOOOOOOOOOOOO ",
" OOOOOOOOOOOOOOO OOOOOOOO ooooooooo OOOOOOOOOOOOOOOOOOOOOOOOOOO ",
" OOOOOOOOOOOOOOO OOOOOOOO ooooooooo OOOOOOOOOOOOOOOOOOOOOOOOOOO ",
" OOOOOOOOOOOOOOO OOOOOOOO oooooo    OOOOOOOO...OOOOOOOOOOOOOOOO ",
" OOOOOOOOOOOOOOO OOOOOOOO oooooo XX OOOOOOO....OOOOOOOOOOOOOOOO ",
" OOOOOOOOOOOOOOO OOOOOOO ooooooo X$X OOOOO.....OOOOOOOOOOOOOOOO ",
" OOOOOOOOOOOOOOO OOOOOOO +oooooo  XXX OOO.....OOOOOOOOOOOOOOOOO ",
" OOOOOOOOOOOOOOO OOOOOO +++ooooooo XXX O.....OOOOOOOOOOOOOOOOOO ",
" OOOOOOOOOOOOOOO OOOOOO +++ooooooo+ X@ .....OOOOOOOOOOOOOOOOOOO ",
" OOOOOOOOOOOOOOO OOOOO +++ooooooooo @@ ....OOOOOOOOOOOOOOOOOOOO ",
" OOOOOOOOOOOOOOO OOOO ++oooooooooo @@$@ ..OOOOOOOOOOOOOOOOOOOOO ",
" OOOOOOOOOOOOOOO OOO oooooooooooo @@@$$@ . OOOOOOOOOOOOOOOOOOOO ",
" OOOOOOOOOOOOOOO OO oooooooooooo @@@$@@@@@X OOOOOOOOOOOOOOOOOOO ",
" OOOOOOOOOOOOOOO O oooooooooooo @@@$@@@  XXX OOOOOOOOOOOOOOOOOO ",
" OOOOOOOOOOOOOOO O ooooooo ooo @@@$@@@ o  XXX  OOOOOOOOOOOOOOOO ",
"                   oooooo ooo @@@$@@@ oooo X$X                  ",
" OOOOOOOOOOOOOOOOO oooooo oo @@@$@@@ oooooo XX O OOOOOOOOOOOOOO ",
" OOOOOOOOOOOOOOOOO oooooo o @@$$@@@  oooooo    O OOOOOOOOOOOOOO ",
" OOOOOOOOOOOOOOOOO oooooo  @@@$$@@ o oooooo OOOO OOOOOOOOOOOOOO ",
" OOOOOOOOOOOOOOOO ooooooo @@$$@@@ oo oooooo OOOO OOOOOOOOOOOOOO ",
" OOOOOOOOOOOOOOOO oooooo @@@$$@@ ### ooooooo OOO OOOOOOOOOOOOOO ",
" OOOOOOOOOOOOOOOO oooooo @$$@@@ #### ooooooo OOO OOOOOOOOOOOOOO ",
" OOOOOOOOOOOOOOOO oooooo @$$@@ ###### oooooo OOO OOOOOOOOOOOOOO ",
" OOOOOOOOOOOOOOOO oooooo @@@@ ####### oooooo OOO OOOOOOOOOOOOOO ",
" OOOOOOOOOOOOOOOO oooooo      ####### ooooo  OOO OOOOOOOOOOOOOO ",
" OOOOOOOOOOOOOOOOO ooooo ##+#+#+#+#+# ooooo OOOO OOOOOOOOOOOOOO ",
" OOOOOOOOOOOOOOOOO oooooo ++++++++++ oooooo OOOO OOOOOOOOOOOOOO ",
" OOOOOOOOOOOOOOOOO oooooo ++++++++++ ooooo  OOOO OOOOOOOOOOOOOO ",
" OOOOOOOOOOOOOOOOO oooooo  ++++++++  ooooo OOOOO OOOOOOOOOOOOOO ",
" OOOOOOOOOOOOOOOOO oooooo O +    +  ooooo  OOOOO OOOOOOOOOOOOOO ",
" OOOOOOOOOOOOOOOOOO oooo OOO OOOO O  oooo OOOOOO OOOOOOOOOOOOOO ",
" OOOOOOOOOOOOOOOOOOO oo OOOO OOOO OO  oo  OOOOOO OOOOOOOOOOOOOO ",
" OOOOOOOOOOOOOOOOOOOO o OOOO OOOO OOO    OOOOOOO OOOOOOOOOOOOOO ",
" OOOOOOOOOOOOOOOOOOOOO OOOOO.OOOO.OOOOO OOOOOOOO OOOOOOOOOOOOOO ",
" OOOOOOOOOOOOOOOOOOOOOOOOOOO.OOOO.OOOOOOOOOOOOOO OOOOOOOOOOOOOO ",
" OOOOOOOOOOOOOOOOOOOOOOOOOOO.OOOO.OOOOOOOOOOOOOO OOOOOOOOOOOOOO ",
" OOOOOOOOOOOOOOOOOOOOOOOOOO...OO...OOOOOOOOOOOOO OOOOOOOOOOOOOO ",
" OOOOOOOOOOOOOOOOOOOOOOOOOOOOOOOOOOOOOOOOOOOOOOO OOOOOOOOOOOOOO ",
" OOOOOOOOOOOOOOOOOOOOOOOOOOOOOOOOOOOOOOOOOOOOOOO OOOOOOOOOOOOOO ",
" OOOOOOOOOOOOOOOOOOOOOOOOOOOOOOOOOOOOOOOOOOOOOOO OOOOOOOOOOOOOO ",
" OOOOOOOOOOOOOOOOOOOOOOOOOOOOOOOOOOOOOOOOOOOOOOO OOOOOOOOOOOOOO ",
" OOOOOOOOOOOOOOOOOOOOOOOOOOOOOOOOOOOOOOOOOOOOOOO OOOOOOOOOOOOOO ",
" OOOOOOOOOOOOOOOOOOOOOOOOOOOOOOOOOOOOOOOOOOOOOOO OOOOOOOOOOOOOO ",
" OOOOOOOOOOOOOOOOOOOOOOOOOOOOOOOOOOOOOOOOOOOOOOO OOOOOOOOOOOOOO ",
" OOOOOOOOOOOOOOOOOOOOOOOOOOOOOOOOOOOOOOOOOOOOOOO OOOOOOOOOOOOOO ",
" OOOOOOOOOOOOOOOOOOOOOOOOOOOOOOOOOOOOOOOOOOOOOOO OOOOOOOOOOOOOO ",
"                                                                "
};
