/* XPM */
static char *_b746a9527384340c1a849fc8781714f2pfOOEJHybFR1LMT[] = {
/* columns rows colors chars-per-pixel */
"64 64 11 1 ",
"  c None",
". c black",
"X c #2C2B2B",
"o c #3D3939",
"O c #3C3A3A",
"+ c #676363",
"@ c #756F6F",
"# c #CF203B",
"$ c #848282",
"% c #DACFCF",
"& c #FEFEFE",
/* pixels */
"OOOOOOOOOOOOOOOOOOOOOOOOOOOOOOOOOOOOOOOOOOOOOOOOOOOOOOOOOOOOOOOO",
"O+++++++++++++++O++++++++++++++++++++++++++++++++++++++++++++++O",
"O+++++++++++++++O++++++++++++++++++++++++++++++++++++++++++++++O",
"O+++++++++++++++O++++++++++++++++++++++++++++++++++++++++++++++O",
"O+++++++++++++++O++++++++++++++++++++++++++++++++++++++++++++++O",
"O+++++++++++++++O++++++++++++++++++++++++++++++++++++++++++++++O",
"O+++++++++++++++O++++++++++++++++++++++++++++++++++++++++++++++O",
"O+++++++++++++++O++++++++++++++++++++++++++++++++++++++++++++++O",
"O+++++++++++++++O++++++++++++++++++++++++++++++++++++++++++++++O",
"O+++++++++++++++O++++++++++++++++++++++++++++++++++++++++++++++O",
"O+++++++++++++++O++++++++++++++++++++++++++++++++++++++++++++++O",
"O+++++++++++++++O++++++++++++++++++++++++++++++++++++++++++++++O",
"O+++++++++++++++O++++++++++++++++++++++++++++++++++++++++++++++O",
"O+++++++++++++++O++++++++++++++++++++++++++...+++++++++++++++++O",
"O+++++++++++++++O+++++++++++++++++++++++++.OO...+++++++++++++++O",
"O+++++++++++++++O+++++++++++++++++++++++..OOOOO...+++++++++++++O",
"O+++++++++++++++O+++++++++++++++++++++++.OOOOOOOO..++++++++++++O",
"O+++++++++++++++O++++++++++++++++++++++.OOOOOOOOOO..+++++++++++O",
"O+++++++++++++++O+++++++++++++....+++++.O...OOO&&OO..++++++++++O",
"O+++++++++++++++O+++++++++++++.XX.+++++.O...OOO&&OOO.++++++++++O",
"O+++++++++++++++O+++++++++++++.X%X.....O....OOOOOOOO.++++++++++O",
"O+++++++++++++++O+++++++++++++..XXX.OOO...OOOOOOOOOO@.+++++++++O",
"O+++++++++++++++O++++++++++++++..XXX.O...OOO@@OOOOO@@.+++++++++O",
"O+++++++++++++++O+++++++........O..#....OOO@@@@OOO@@@.+++++++++O",
"O+++++++++++++++O+++++..OOOOOOOOO.##...OOO@@@@@@OO...++++++++++O",
"O+++++++++++++++O++...OOOOOOOOOO.##%#...O@@@@@@@O..++++++++++++O",
"O+++++++++++++++O..OOOOOOOOOOOO.###%%##X.O@@@@@..++++++++++++++O",
"O++++++++++++++..OOOOOOOOOOOOO.###%###XXX.@@@@@.+++++++++++++++O",
"O+++++++++++++..OOOOOOOOOOOOO.###%###..XXX.@@@..+++++++++++++++O",
"O++++++++++++.OOOOOOOOOOOOOO.###%###.OO.X%X.O@.++++++++++++++++O",
"O++++++++++..OOOOOOOOOOOOOO.###%###.OOOO.XX.OO.++++++++++++++++O",
"O++++++++++.OOOOOOOOOOOOOO.###%###.OOOOOO...OO.++++++++++++++++O",
"OOOOOOOOO..OOOOOOOOOOOOOO.###%###.OOOOOOOOOOOO.OOOOOOOOOOOOOOOOO",
"O+++++++.OOOOOOOOOOOOOOO.###%###.OOOOOOOO.OOOO.+O++++++++++++++O",
"O++++++.OOOOOOOOOOOOOOO.##%%###.OOOOOOOO..OOOO.+O++++++++++++++O",
"O++++++.OOOOOOOOOOOOOO.###%%##.OOOOOOOO..OOOOO.+O++++++++++++++O",
"O++++++.OOOOOOOOOOOOO.##%%###.OOOOOOOO.OOOOOO..+O++++++++++++++O",
"O+++++.OOOOO.OOOOOOO.###%%##.OOOO.....$$$$OOO.++O++++++++++++++O",
"O+++++.OOOO..OOOOOOO.#%%###.OOO...$$$$$$$$$$.+++O++++++++++++++O",
"O+++++.OO..OOOOOOOOO.#%%##.OOO..$$$$$$$$$$$..+++O++++++++++++++O",
"O+++++...+.OOOOOOOOO.####.OOO.+.@$@$@$@$@$$.++++O++++++++++++++O",
"O+++++++++.OOOOOOOOO.....OOO .+.@@@@@@@@@@..++++O++++++++++++++O",
"O++++++++.OOOOOOO..OOOOOOOO..+++.@@@@@@@..++++++O++++++++++++++O",
"O++++++++.....OOO..OOOOOOO..++++.@@@@@....++++++O++++++++++++++O",
"O++++++++..+++...+.OOOOOO.++++++..@....++.++++++O++++++++++++++O",
"O++++++++++++++++++.OOOO..+++++++...+.+++.++++++O++++++++++++++O",
"O++++++++++++++++++.OO..+++++++++++++.+++..+++++O++++++++++++++O",
"O++++++++++++++++++...+++++++++++++++.++++.+++++O++++++++++++++O",
"O++++++++++++++++++++++++++++++++++++.++++.+++++O++++++++++++++O",
"O++++++++++++++++++++++++++++++++++++.++++.+++++O++++++++++++++O",
"O++++++++++++++++++++++++++++++++++++..+++..++++O++++++++++++++O",
"O+++++++++++++++++++++++++++++++++++++++++++++++O++++++++++++++O",
"O+++++++++++++++++++++++++++++++++++++++++++++++O++++++++++++++O",
"O+++++++++++++++++++++++++++++++++++++++++++++++O++++++++++++++O",
"O+++++++++++++++++++++++++++++++++++++++++++++++O++++++++++++++O",
"O+++++++++++++++++++++++++++++++++++++++++++++++O++++++++++++++O",
"O+++++++++++++++++++++++++++++++++++++++++++++++O++++++++++++++O",
"O+++++++++++++++++++++++++++++++++++++++++++++++O++++++++++++++O",
"O+++++++++++++++++++++++++++++++++++++++++++++++O++++++++++++++O",
"O+++++++++++++++++++++++++++++++++++++++++++++++O++++++++++++++O",
"O+++++++++++++++++++++++++++++++++++++++++++++++O++++++++++++++O",
"O+++++++++++++++++++++++++++++++++++++++++++++++O++++++++++++++O",
"O+++++++++++++++++++++++++++++++++++++++++++++++O++++++++++++++O",
"OOOOOOOOOOOOOOOOOOOOOOOOOOOOOOOOOOOOOOOOOOOOOOOOOOOOOOOOOOOOOOOO"
};
