/* XPM */
static char *_15d3ca32c87468db534140693f23fedeSXkoggqW6DKh0Uj[] = {
/* columns rows colors chars-per-pixel */
"64 64 8 1 ",
"  c black",
". c #0E0E0E",
"X c #3D3939",
"o c #676363",
"O c #756F6F",
"+ c #848282",
"@ c #D9CCCC",
"# c white",
/* pixels */
"                                                                ",
" ooooooooooooooo oooooooooooooooooooooooooooooooooooooooooooooo ",
" ooooooooooooooo oooooooooooooooooooooooooooooooooooooooooooooo ",
" ooooooooooooooo oooooooooooooooooooooooooooooooooooooooooooooo ",
" ooooooooooooooo oooooooooooooooooooooooooooooooooooooooooooooo ",
" ooooooooooooooo oooooooooooooooooooooooooooooooooooooooooooooo ",
" ooooooooooooooo oooooooooooooooooooooooooooooooooooooooooooooo ",
" ooooooooooooooo oooooooooooooooooooooooooooooooooooooooooooooo ",
" ooooooooooooooo oooooooooooooooooooooooooooooooooooooooooooooo ",
" ooooooooooooooo oooooooooooooooooooooooooooooooooooooooooooooo ",
" ooooooooooooooo oooooooooooooooooooooooooooooooooooooooooooooo ",
" ooooooooooooooo ooooooooooooo oooooooooooooooooooooooooooooooo ",
" ooooooooooooooo oooooooooooo X ooooooooooooooooooooooooooooooo ",
" ooooooooooooooo ooooooooooo XXX oooooooooooooooooooooooooooooo ",
" ooooooooooooooo oooooooooo XXXXX ooooooooooooooooooooooooooooo ",
" ooooooooooooooo ooooooooo XXXXXXX oooooooooooooooooooooooooooo ",
" ooooooooooooooo oooooooo XXXXXXXXX ooooooooooooooooooooooooooo ",
" ooooooooooooooo oooooooo X##XXX##X ooooooooooooooooooooooooooo ",
" ooooooooooooooo oooooooo XOOXXXOOX ooooooooooooooooooooooooooo ",
" ooooooooooooo...oooooooo XXXXXXXXX ooooooooooooooooooooooooooo ",
" ooooooooooooo.@..ooooooo XXXOOOXXX ooooooooooooooooooooooooooo ",
" ooooooooooooo..@..oooooo XXOOOOOXX ooooooooooooooooooooooooooo ",
" oooooooooooooo..@..oooo XXXXOOOXXXX oooooooooooooooooooooooooo ",
" ooooooooooooooo..@..ooo OXXXXOXXXXO oooooooooooooooooooooooooo ",
" ooooooooooooooo ..@..o OOOXXXXXXXOOO ooooooooooooooooooooooooo ",
" ooooooooooooooo o..@.. OOOXXXXXXXOOOO oooooooooooooooooooooooo ",
" ooooooooooooooo oo... OOOXXXXXXXXXOOO oooooooooooooooooooooooo ",
" ooooooooooooooo ooo. OOXXXXXXXXXXXXOOO ooooooooooooooooooooooo ",
" ooooooooooooooo ooo XXXXXXXXXXXXXXXXXXX oooooooooooooooooooooo ",
" ooooooooooooooo oo XXXXXXXXXXXXXXXXXXXXX ooooooooooooooooooooo ",
" ooooooooooooooo o XXXXXXXXXXXXXXXXXXXXXXX oooooooooooooooooooo ",
" ooooooooooooooo o XXXXXXX XXXXXXXX XXXXXXX ooooooooooooooooooo ",
"                   XXXXXX XXXXXXXXXX XXXXXX                     ",
" ooooooooooooooooo XXXXXX XXXXXXXXXX XXXXXX oooo oooooooooooooo ",
" ooooooooooooooooo XXXXXX XXXXXXXXXX XXXXXX oooo oooooooooooooo ",
" ooooooooooooooooo XXXXXX XXXXXXXXXX XXXXXX oooo oooooooooooooo ",
" oooooooooooooooo XXXXXXX XXXXXXXXXX XXXXXX oooo oooooooooooooo ",
" oooooooooooooooo XXXXXXX +++XXXX+++ XXXXXXX ooo oooooooooooooo ",
" oooooooooooooooo XXXXXXX ++++++++++ XXXXXXX ooo oooooooooooooo ",
" oooooooooooooooo XXXXXX ++++++++++++ XXXXXX ooo oooooooooooooo ",
" oooooooooooooooo XXXXXX ++++++++++++ XXXXXX ooo oooooooooooooo ",
" oooooooooooooooo XXXXXX ++++++++++++ XXXXX  ooo oooooooooooooo ",
" ooooooooooooooooo XXXXX ++O+O+O+O+O+ XXXXX oooo oooooooooooooo ",
" ooooooooooooooooo XXXXXX OOOOOOOOOO XXXXXX oooo oooooooooooooo ",
" ooooooooooooooooo XXXXXX OOOOOOOOOO XXXXX  oooo oooooooooooooo ",
" ooooooooooooooooo XXXXXX  OOOOOOOO  XXXXX ooooo oooooooooooooo ",
" ooooooooooooooooo XXXXXX o O    O  XXXXX  ooooo oooooooooooooo ",
" oooooooooooooooooo XXXX ooo oooo o  XXXX oooooo oooooooooooooo ",
" ooooooooooooooooooo XX oooo oooo oo  XX  oooooo oooooooooooooo ",
" oooooooooooooooooooo X oooo oooo ooo    ooooooo oooooooooooooo ",
" ooooooooooooooooooooo ooooo.oooo.ooooo oooooooo oooooooooooooo ",
" ooooooooooooooooooooooooooo.oooo.oooooooooooooo oooooooooooooo ",
" ooooooooooooooooooooooooooo.oooo.oooooooooooooo oooooooooooooo ",
" oooooooooooooooooooooooooo...oo...ooooooooooooo oooooooooooooo ",
" ooooooooooooooooooooooooooooooooooooooooooooooo oooooooooooooo ",
" ooooooooooooooooooooooooooooooooooooooooooooooo oooooooooooooo ",
" ooooooooooooooooooooooooooooooooooooooooooooooo oooooooooooooo ",
" ooooooooooooooooooooooooooooooooooooooooooooooo oooooooooooooo ",
" ooooooooooooooooooooooooooooooooooooooooooooooo oooooooooooooo ",
" ooooooooooooooooooooooooooooooooooooooooooooooo oooooooooooooo ",
" ooooooooooooooooooooooooooooooooooooooooooooooo oooooooooooooo ",
" ooooooooooooooooooooooooooooooooooooooooooooooo oooooooooooooo ",
" ooooooooooooooooooooooooooooooooooooooooooooooo oooooooooooooo ",
"                                                                "
};
