/* XPM */
static char *_574d7e2770445bb8778521cffdc7a08USST8yWTt7biqw5n[] = {
/* columns rows colors chars-per-pixel */
"64 64 2 1 ",
"  c #3C3A3A",
". c #676363",
/* pixels */
"                                                                ",
" ............... .............................................. ",
" ............... .............................................. ",
" ............... .............................................. ",
" ............... .............................................. ",
" ............... .............................................. ",
" ............... .............................................. ",
" ............... .............................................. ",
" ............... .............................................. ",
" ............... .............................................. ",
" ............... .............................................. ",
" ............... .............................................. ",
" ............... .............................................. ",
" ............... .............................................. ",
" ............... .............................................. ",
" ............... .............................................. ",
" ............... .............................................. ",
" ............... .............................................. ",
" ............... .............................................. ",
" ............... .............................................. ",
" ............... .............................................. ",
" ............... .............................................. ",
" ............... .............................................. ",
" ............... .............................................. ",
" ............... .............................................. ",
" ............... .............................................. ",
" ............... .............................................. ",
" ............... .............................................. ",
" ............... .............................................. ",
" ............... .............................................. ",
" ............... .............................................. ",
" ............... .............................................. ",
"                                                                ",
" ............................................... .............. ",
" ............................................... .............. ",
" ............................................... .............. ",
" ............................................... .............. ",
" ............................................... .............. ",
" ............................................... .............. ",
" ............................................... .............. ",
" ............................................... .............. ",
" ............................................... .............. ",
" ............................................... .............. ",
" ............................................... .............. ",
" ............................................... .............. ",
" ............................................... .............. ",
" ............................................... .............. ",
" ............................................... .............. ",
" ............................................... .............. ",
" ............................................... .............. ",
" ............................................... .............. ",
" ............................................... .............. ",
" ............................................... .............. ",
" ............................................... .............. ",
" ............................................... .............. ",
" ............................................... .............. ",
" ............................................... .............. ",
" ............................................... .............. ",
" ............................................... .............. ",
" ............................................... .............. ",
" ............................................... .............. ",
" ............................................... .............. ",
" ............................................... .............. ",
"                                                                "
};
