/* XPM */
static char *_c251aff1af7452db2e038627edf804dYLGBhhdihsrDag1C[] = {
/* columns rows colors chars-per-pixel */
"64 64 2 1 ",
"  c black",
". c #15CA36",
/* pixels */
"                                                                ",
"                                                                ",
"    ............................                        ..  ..  ",
"    ............................                        ..  ..  ",
"    ......................................................      ",
"    ......................................................      ",
"    ........................................................    ",
"    ........................................................    ",
"    ........................................................    ",
"    ........................................................    ",
"    ..........................................................  ",
"    ..........................................................  ",
"    ........................................................    ",
"    ........................................................    ",
"    ........................................................    ",
"    ........................................................    ",
"  ..........................................................    ",
"  ..........................................................    ",
"  ..........................................................    ",
"  ..........................................................    ",
"  ..........................................................    ",
"  ..........................................................    ",
"  ............................................................  ",
"  ............................................................  ",
"  ............................................................  ",
"  ............................................................  ",
"    ..........................................................  ",
"    ..........................................................  ",
"    ..........................................................  ",
"    ..........................................................  ",
"    ..........................................................  ",
"    ..........................................................  ",
"    ..........................................................  ",
"    ..........................................................  ",
"    ..........................................................  ",
"    ..........................................................  ",
"    ..........................................................  ",
"    ..........................................................  ",
"    ..........................................................  ",
"    ..........................................................  ",
"    ..........................................................  ",
"    ..........................................................  ",
"    ..........................................................  ",
"    ..........................................................  ",
"    ..........................................................  ",
"    ..........................................................  ",
"    ..........................................................  ",
"    ..........................................................  ",
"    ..........................................................  ",
"    ..........................................................  ",
"    ..........................................................  ",
"    ..........................................................  ",
"    ..........................................................  ",
"    ..........................................................  ",
"    ........................................................    ",
"    ........................................................    ",
"    ....    ................................................    ",
"    ....    ................................................    ",
"            ................................................    ",
"            ................................................    ",
"                                            ................    ",
"                                            ................    ",
"                                                                ",
"                                                                "
};
